<?xml version="1.0" encoding="utf-8" ?><svg xmlns="http://www.w3.org/2000/svg" xmlns:xlink="http://www.w3.org/1999/xlink" width="1024" height="1024" viewBox="0 0 1024 1024"><path fill="#FDFDFB" d="M0 0L1024 0L1024 1024L0 1024L0 0Z"/><defs><linearGradient id="gradient_0" gradientUnits="userSpaceOnUse" x1="458.86847" y1="267.00461" x2="408.92795" y2="371.58627"><stop offset="0" stop-color="#FFA612"/><stop offset="1" stop-color="#F86637"/></linearGradient></defs><path fill="url(#gradient_0)" d="M409.608 254.395C428.686 255.744 435.181 260.632 451.567 270.441C455.413 272.744 459.435 275.934 463.472 277.741C460.891 275.36 458.765 273.557 456.022 271.36C456.608 270.659 456.918 270.4 457.586 269.775L459.368 269.82C459.951 269.581 461.612 268.12 462.427 267.593C470.878 272.815 482.48 285.596 486.931 287.842C488.523 289.502 491.637 292.799 492.61 294.801C495.05 299.825 495.101 301.512 498.796 305.929L499.287 306.51C495.45 304.79 493.154 303.278 489.569 301C494.426 306.977 499.624 312.517 504.814 318.207C505.8 319.288 511.58 326.178 512.259 326.674C514.08 329.752 519.085 335.893 519.744 337.346C518.471 339.586 519.717 340.281 521.281 342.237L525.359 346.127L525.117 346.661C523.057 346.503 522.022 345.906 520.731 344.302C521.269 345.954 522.066 347.793 522.054 349.439L521.271 349.607C520.457 349.001 519.767 348.262 518.915 348.152C514.957 347.855 514.458 347.408 511.322 344.873C509.179 343.399 505.294 338.702 503.43 337.724C496.478 334.074 493.886 333.648 487.785 328.7C484.213 328.295 480.855 327.392 477.091 327.056L472.762 327.075C473.464 326.74 428.644 335.734 430.45 335.692C427.528 334.288 417.265 337.955 414.079 338.96L412.531 336.109L412.279 335.728C407.029 335.711 405.445 335.815 400.223 334.923C404.569 333.52 408.818 331.136 413.04 329.854C418.543 328.183 424.168 326.707 429.717 325.059C420.917 325.005 414.963 326.087 406.3 327.45C409.527 325.993 411.728 324.942 414.795 323.196C411.569 322.818 402.622 321.503 400.401 323.788L401.053 325.423L400.572 326.097C394.96 327.562 382.11 331.493 377.019 331.403L376.967 331.022C383.081 327.85 387.131 326.305 393.589 324.122C387.043 325.004 381.484 325.627 375.078 327.515C373.325 328.031 364.48 330.886 363.728 330.805L364.014 329.996C369.862 326.554 374.838 325.46 381.097 322.875C368.989 323.862 359.553 325.289 348.763 331.525C344.463 334.01 338.672 337.554 334.103 339.062C337.198 334.824 339.524 331.949 343.465 328.521L343.042 327.339C339.707 329.154 335.028 331.956 331.477 332.921L331.039 332.57C336.774 325.692 358.407 317.035 367.371 315.358C369.952 314.875 379.426 312.883 381.063 312.051L381.123 311.288C381.325 310.589 381.843 309.395 382.128 308.673L379.783 308.915C378.854 308.108 378.323 307.909 377.233 307.344C378.34 306.461 381.751 305.808 383.307 305.418C383.68 304.664 383.613 305.074 383.445 304.182L382.116 304.186L380.614 303.178C387.003 301.558 392.737 301.282 399.431 300.449C405.553 299.686 420.035 301.328 424.829 299.21C431.509 296.259 437.647 299.126 443.614 298.7L444.039 298.019C439.819 291.464 403.038 296.685 396.125 292.495C395.426 290.984 395.804 290.947 396.201 288.897L396.599 287.325C399.102 285.571 400.086 285.46 402.993 284.646C407.943 284.231 412.254 283.768 417.243 284.02C418.37 283.979 419.208 283.887 420.33 283.757L420.549 283.119C418.462 281.312 406.393 279.171 402.238 277.913L401.241 277.728C400.518 276.841 400.387 276.57 399.829 275.559C395.905 275.276 393.373 274.852 389.339 275.111C385.85 275.334 373.85 277.506 371.831 275.492C373.916 272.954 381.344 271.324 384.688 270.365C380.804 269.959 375.769 269.939 371.74 269.759C384.871 264.088 402.074 264.417 416.152 266.352C419.011 266.745 427.351 269.599 430.808 270.58C423.573 266.43 420.327 265.268 412.507 262.57C415.795 262.87 419.079 263.205 422.359 263.574C424.505 264.341 425.933 263.506 428.626 263.018C431.08 263.523 433.537 264.008 435.998 264.473C432.129 261.708 414.813 255.978 409.608 254.395Z"/><path fill="#FDFDFB" d="M443.97 316.524C458.958 315.876 465.446 318.101 477.091 327.056L472.762 327.075C462.912 323.349 454.286 319.934 443.968 317.554L443.97 316.524Z"/><path fill="#FBF5E7" d="M402.993 284.646C407.943 284.231 412.254 283.768 417.243 284.02C415.977 284.336 415.001 284.554 413.771 285.033L413.701 285.437C417.301 285.944 424.386 286.074 426.884 287.765C422.304 288.115 401.536 286.768 399.164 289.306C400.509 289.912 401.171 290.185 402.611 290.662C401.13 291.572 400.639 291.336 398.74 291.452C396.569 290.074 398.267 290.185 396.201 288.897L396.599 287.325C399.102 285.571 400.086 285.46 402.993 284.646Z"/><path fill="#F9A73E" d="M402.993 284.646C407.943 284.231 412.254 283.768 417.243 284.02C415.977 284.336 415.001 284.554 413.771 285.033L413.701 285.437C410.259 285.54 406.388 285.574 402.991 285.814L402.993 284.646Z"/><path fill="#E8A578" d="M396.599 287.325C399.102 285.571 400.086 285.46 402.993 284.646L402.991 285.814C401.467 286.248 397.997 287.39 396.599 287.325Z"/><path fill="#D06A2C" d="M518.915 348.152C517.146 343.867 506.523 336.792 506.253 333.307L507.458 333.021C511.538 333.885 512.764 339.483 516.015 342.061C516.784 342.671 520.205 342.289 521.281 342.237L525.359 346.127L525.117 346.661C523.057 346.503 522.022 345.906 520.731 344.302C521.269 345.954 522.066 347.793 522.054 349.439L521.271 349.607C520.457 349.001 519.767 348.262 518.915 348.152Z"/><path fill="#FBF5E7" d="M377.233 307.344C378.34 306.461 381.751 305.808 383.307 305.418L384.912 306.701C390.051 306.514 394.461 306.352 399.583 306.913C393.776 307.612 387.957 308.199 382.128 308.673L379.783 308.915C378.854 308.108 378.323 307.909 377.233 307.344Z"/><path fill="#E8A578" d="M377.233 307.344C378.34 306.461 381.751 305.808 383.307 305.418L384.912 306.701C382.618 307.008 379.443 307.599 377.233 307.344Z"/><path fill="#FBF5E7" d="M399.829 275.559C406.774 275.687 408.957 276.166 415.575 277.999C411.35 277.671 406.374 277.183 402.238 277.913L401.241 277.728C400.518 276.841 400.387 276.57 399.829 275.559Z"/><path fill="#FBE7DC" d="M350.779 323.87C348.577 325.727 345.976 327.073 343.465 328.521L343.042 327.339C346.139 325.648 347.457 325.078 350.779 323.87Z"/><path fill="#E8A578" d="M443.968 317.554C442.512 317.482 439.572 317.281 438.43 316.54C440.019 315.965 442.199 316.361 443.97 316.524L443.968 317.554Z"/><path fill="#FDFDFB" d="M460.928 314.759C452.852 311.899 442.318 310.225 433.983 308.025C430.455 307.094 426.726 306.595 423.31 305.256L423.392 304.949C430.245 304.209 445.012 307.939 452.428 309.605C450.809 308.493 448.762 307.413 447.029 306.436L447.861 305.408C454.923 308.275 462.55 309.915 469.059 312.928L469.707 313.221L470.093 313.402C467.205 312.741 464.944 312.031 461.988 312.183C461.632 313.157 461.361 313.817 460.928 314.759Z"/><path fill="#FBF5E7" d="M460.928 314.759C461.361 313.817 461.632 313.157 461.988 312.183C471.098 317.927 475.889 317.612 486.314 326.369C482.085 324.714 478.509 322.184 474.536 319.984C470.101 317.529 465.797 316.075 460.928 314.759Z"/><path fill="#FBF5E7" d="M397.659 272.762C401.586 272.333 408.454 271.732 411.815 273.752C407.899 274.199 400.84 274.867 397.659 272.762Z"/><path fill="#F8E2C3" d="M447.029 306.436C445.783 305.887 440.254 303.576 439.505 303.113L440.129 302.521C443.137 303.388 444.987 304.189 447.861 305.408L447.029 306.436Z"/><path fill="#94381A" d="M545.957 305.506L545.871 306.351C545.724 307.688 545.432 308.739 545.095 310.031L545.546 310.344C547.652 308.422 555.156 308.01 558.045 308.196L558.59 308.586C557.393 309.472 555.442 310.545 555.155 311.695L556.883 312.322L557.117 312.993C555.906 314.253 555.879 314.302 554.319 315.306C557.069 316.074 557.45 316.195 559.758 317.855C562.357 316.529 563.656 315.796 566.517 314.982C564.934 316.539 563.815 317.102 561.866 318.21C563.725 318.426 564.875 318.299 566.755 318.187L564.87 319.978L567.97 319.748C568.045 320.985 568.649 321.378 569.506 322.342C570.73 322.603 571.772 322.816 573.014 323.017L573.364 323.293C576.264 323.604 579.015 323.852 581.877 324.438L580.197 325.8C575.095 326.726 571.89 328.28 567.031 329.784C569.094 330.857 570.764 330.465 573.087 330.946C576.118 331.428 577.278 331.821 580.102 332.775C575.223 332.968 570.283 333.11 565.421 333.493L565.769 334.413C567.138 338.103 566.608 342.155 571.009 342.591L570.893 343.519C576.458 344.818 586.566 346.98 591.561 349.216C605.494 355.454 647.856 386.616 646.592 402.674L645.599 403.45C638.659 388.689 631.3 378.69 616.988 370.064C632.194 385.356 640.14 398.156 649.463 417.553C652.137 423.116 654.768 427.932 656.763 433.901C655.606 433.163 652.039 431.845 650.713 431.353C649.427 425.404 645.794 416.739 642.809 411.52C644.788 420.796 651.762 433.364 650.348 443.771C648.426 440.062 647.694 435.711 646.104 431.929C640.299 418.117 633.417 404.939 622.591 394.475C628.392 405.881 643.236 430.832 637.95 444.142L637.489 444.167C636.169 441.647 633.502 433.189 632.563 430C627.687 413.449 623.56 404.69 612.05 391.604C613.061 395.272 613.438 397.301 614.002 401.078C606.244 389.782 604.645 381.001 593.457 371.527C595.533 375.669 601.325 383.964 604.365 389.673C601.786 387.41 599.151 385.211 596.463 383.078C599.903 388.927 607.942 397.089 609.431 401.112L608.307 402.598L607.413 403.263C604.886 402.95 602.108 395.081 598.505 394.124C597.887 395.591 598.966 395.858 598.54 397.906C595.707 395.136 595.226 390.985 592.579 388.489C590.948 386.95 584.105 379.818 582.585 379.436L582.972 381.358C581.922 382.054 581.921 381.95 580.634 382.016L580.117 382.655C578.949 383.295 578.502 383.584 577.241 384.064C574.735 381.084 572.597 378.659 570.512 375.376L571.125 374.122C569.868 373.646 569.348 373.293 568.19 372.638C565.642 371.295 562.216 369.876 559.516 368.676C558.542 369.7 558.678 369.756 557.511 370.424C547.225 364.229 533.405 359.485 521.843 356.085C521.132 360.785 520.867 363.418 519.37 367.931C515.883 374.028 515.774 383.481 514.183 390.314C514.062 390.831 517.645 393.115 514.937 396.198C511.403 400.857 511.687 406.441 510.231 411.739C509.813 413.264 508.945 412.698 508.131 413.945L506.015 414.638C505.421 414.552 504.638 414.337 504.035 414.194C500.483 409.358 507.033 402.246 505.493 398.403C496.392 396.797 508.478 384.985 507.233 378.974L506.455 378.566L503.946 379.842L503.301 379.492C503.058 376.477 506.059 372.485 506.837 369.379C507.38 367.212 507.722 364.984 508.077 362.782C504.797 367.145 496.014 383.731 494.571 384.998C494.386 383.883 494.497 384.227 494.016 383.171C492.861 384.375 491.713 387.878 491.007 389.645C490.197 391.91 489.109 395.53 487.797 397.39L487.055 397.5L486.592 396.638L485.131 395.293C481.393 396.749 475.304 418.472 474.761 423.121C474.314 426.951 474.643 431.811 473.839 435.72L473.159 435.69C472.111 433.991 472.067 431.511 471.831 429.453C471.498 431.983 471.15 434.283 471.064 436.843L470.579 436.856C470.472 435.551 469.939 433.937 469.585 432.627C469.105 425.74 469.997 422.292 468.349 415.426C468 418.025 467.532 425.076 466.855 426.865L466.271 426.973L464.577 425.779C462.146 429.01 463.4 447.663 462.244 449.39L461.098 449.217C460.245 447.994 460.201 444.447 460.062 442.753C459.769 442.185 458.971 441.096 458.576 440.519C458.563 442.215 458.561 442.506 458.246 444.253L457.826 443.92C457.301 440.79 457.19 437.433 457.831 434.312C458.245 426.792 458.732 419.275 459.293 411.765C457.273 417.23 456.402 421.08 455.392 426.8L454.794 426.503L454.487 421.782C454.446 411.774 461.218 401.752 461.468 396.484L460.808 396.156C460.663 393.155 465.646 383.864 468.47 382.998C467.937 384.449 467.952 384.182 467.753 385.676C472.575 384.589 476.343 379.061 479.236 375.268L479.505 376.103L481.172 374.173C482.408 372.736 482.802 371.836 484.643 371.475C485.811 371.956 485.623 371.677 486.346 372.517L485.089 374.261L485.327 374.46C487.907 372.699 506.243 359.483 507.814 358.983C508.356 359.382 508.742 359.682 509.257 360.099C511.255 359.24 515.264 356.104 517.192 354.688C515.196 355.203 513.192 355.685 511.18 356.132L510.515 356.221C508.79 353.995 507.407 353.889 504.741 353.965C507.083 353.411 509.017 352.435 511.471 351.724C509.421 351.548 508.532 351.284 506.881 350.162C505.844 347.131 508.971 345.999 511.322 344.873C514.458 347.408 514.957 347.855 518.915 348.152C519.767 348.262 520.457 349.001 521.271 349.607L522.054 349.439C522.066 347.793 521.269 345.954 520.731 344.302C522.022 345.906 523.057 346.503 525.117 346.661L525.359 346.127L521.281 342.237C519.717 340.281 518.471 339.586 519.744 337.346C519.085 335.893 514.08 329.752 512.259 326.674C515.545 328.04 519.35 332.717 521.41 335.624L527.78 343.276C529.458 339.251 530.864 334.399 532.455 330.232C535.902 321.457 540.438 313.15 545.957 305.506Z"/><path fill="#E57E43" d="M559.758 317.855C562.357 316.529 563.656 315.796 566.517 314.982C564.934 316.539 563.815 317.102 561.866 318.21C563.725 318.426 564.875 318.299 566.755 318.187L564.87 319.978C562.755 319.717 563.62 319.544 561.552 321.125C556.866 320.566 548.59 324.253 545.677 321.855C545.898 318.133 551.452 316.441 554.319 315.306C557.069 316.074 557.45 316.195 559.758 317.855Z"/><path fill="#F9A73E" d="M552.07 336.549C555.944 335.687 561.772 333.797 565.421 333.493L565.769 334.413C567.138 338.103 566.608 342.155 571.009 342.591L570.893 343.519C564.041 342.1 558.518 339.27 552.07 336.549Z"/><path fill="#F48E38" d="M564.87 319.978L567.97 319.748C568.045 320.985 568.649 321.378 569.506 322.342C570.73 322.603 571.772 322.816 573.014 323.017L573.364 323.293C565.255 323.347 557.901 325.426 550.109 327.403C553.986 325.034 557.669 323.744 561.552 321.125C563.62 319.544 562.755 319.717 564.87 319.978Z"/><path fill="#FBE7DC" d="M542.485 361.471C548.27 362.912 568.464 369.176 571.125 374.122C569.868 373.646 569.348 373.293 568.19 372.638C565.642 371.295 562.216 369.876 559.516 368.676C554.307 366.648 547.357 364.053 542.485 361.471Z"/><path fill="#FBF5E7" d="M458.939 433.524L459.592 430.994L460.013 430.759C460.281 434.861 460.066 438.669 460.062 442.753C459.769 442.185 458.971 441.096 458.576 440.519C458.563 442.215 458.561 442.506 458.246 444.253L457.826 443.92C457.301 440.79 457.19 437.433 457.831 434.312L458.939 433.524Z"/><path fill="#BE6B50" d="M458.939 433.524C458.81 435.3 458.446 438.887 458.576 440.519C458.563 442.215 458.561 442.506 458.246 444.253L457.826 443.92C457.301 440.79 457.19 437.433 457.831 434.312L458.939 433.524Z"/><path fill="#F48E38" d="M511.471 351.724C513.624 351.706 513.403 351.351 514.762 352.375C514.232 354.575 511.851 354.429 511.18 356.132L510.515 356.221C508.79 353.995 507.407 353.889 504.741 353.965C507.083 353.411 509.017 352.435 511.471 351.724Z"/><path fill="#9E4621" d="M489.984 387.488L490.304 386.904C490.901 388.152 490.832 388.246 491.007 389.645C490.197 391.91 489.109 395.53 487.797 397.39L487.055 397.5L486.592 396.638L487.285 394.372C488.012 391.249 488.51 390.256 489.984 387.488Z"/><path fill="#E8A578" d="M489.984 387.488C489.777 389.337 489.025 393.341 487.635 394.594L487.285 394.372C488.012 391.249 488.51 390.256 489.984 387.488Z"/><path fill="#D06A2C" d="M567.031 329.784C569.094 330.857 570.764 330.465 573.087 330.946C568.42 330.907 561.688 330.961 557.285 332.478C555.855 332.971 556.757 332.884 555.026 333.036L555.146 332.816C557.246 331.124 564.03 330.328 567.031 329.784Z"/><path fill="#FBF5E7" d="M469.585 432.627C470.045 431.249 470.514 429.874 470.99 428.502L471.585 428.307L471.831 429.453C471.498 431.983 471.15 434.283 471.064 436.843L470.579 436.856C470.472 435.551 469.939 433.937 469.585 432.627Z"/><path fill="#FD991A" d="M479.505 376.103L481.172 374.173C482.408 372.736 482.802 371.836 484.643 371.475C483.647 374.208 482.58 375.646 479.908 376.899L479.353 376.578L479.505 376.103Z"/><path fill="#F8E2C3" d="M511.187 374.822C512.044 377.043 511.132 379.537 510.467 381.691C509.586 378.668 509.964 377.78 511.187 374.822Z"/><path fill="#D06A2C" d="M552 312.514L551.764 313.765C550.053 315.068 548.484 315.873 546.617 316.916L546.716 316.322C548.433 314.492 549.864 313.8 552 312.514Z"/><path fill="#F75826" d="M468.484 227.255C480.966 232.848 494.627 242.077 503.162 252.871L503.298 253.762L501.546 253.73C507.851 263.177 513.162 266.494 519.319 279.037L523.145 286.443L523.818 287.174L525.05 289.109L525.518 290.039C526.733 285.713 527.374 283.36 530.152 279.649C531.198 278.262 532.518 277.133 533.789 275.925L537.504 271.639C539.883 268.851 552.947 256.88 556.239 254.053L556.438 256.342C557.967 256.16 571.671 246.568 574.551 244.96C580.822 241.46 603.241 232.333 609.164 232.232C606.567 234.744 602.568 235.861 599.164 237.041L600.134 238.211C602.167 237.678 603.225 237.205 605.246 237.514C604.502 239.73 594.041 241.366 592.004 243.953C591.018 247.871 581.889 249.361 580.687 252.07L582.928 252.848C582.367 254.29 577.826 257.089 576.125 258.507C583.205 255.809 606.835 246.57 613.354 246.424L613.91 246.837C612.54 249.934 604.284 251.287 602.473 253.203C604.305 253.196 605.108 253.155 606.924 252.946C597.867 258.581 581.655 262.269 575.671 272.373C576.69 272.849 576.139 272.71 577.411 272.468C577.028 274.874 571.386 278.706 569.149 280.774C571.104 279.945 573.707 278.712 575.719 278.307C577.533 277.653 576.852 277.797 579.055 278.474C577.671 279.271 575.55 280.399 574.275 281.237C571.02 283.172 563.232 288.07 560.033 289.182C554.373 291.806 548.566 299.857 545.957 305.506C540.438 313.15 535.902 321.457 532.455 330.232C530.864 334.399 529.458 339.251 527.78 343.276L521.41 335.624C519.35 332.717 515.545 328.04 512.259 326.674C511.58 326.178 505.8 319.288 504.814 318.207C499.624 312.517 494.426 306.977 489.569 301C493.154 303.278 495.45 304.79 499.287 306.51L498.796 305.929C495.101 301.512 495.05 299.825 492.61 294.801C491.637 292.799 488.523 289.502 486.931 287.842C485.43 285.334 474.929 274.142 472.306 272.335C476.589 273.494 481.244 275.467 485.845 276.81C480.981 273.122 474.249 269.997 469.001 266.699C461.972 262.281 455.418 257.447 448.112 253.501L448.51 251.109C448.366 250.191 448.368 250.135 448.344 249.231L448.894 249.17C450.134 248.119 451.43 247.045 452.959 248.178C462.826 255.494 468.633 259.808 480.747 262.347C472.806 256.257 464.235 253.041 455.834 248.284C449.157 244.504 444.424 238.311 436.108 237.069C434.224 236.788 429.404 235.387 429.245 233.182C431.09 231.905 439.043 233.906 442.1 234.301C437.588 232.459 434.03 231.457 429.841 228.902C432.662 228.907 434.325 228.861 437.129 229.163C441.696 229.656 450.821 232.608 454.931 231.859L455.241 231.171C454.252 229.776 453.148 229.608 451.509 229.018L452.409 227.865C456.488 229.007 463.019 231.832 466.329 228.935C466.989 227.952 467.345 227.946 468.484 227.255Z"/><path fill="#FBF5E7" d="M530.152 279.649C531.198 278.262 532.518 277.133 533.789 275.925C532.979 281.7 530.653 285.427 529.107 290.484C528.695 291.895 528.438 293.581 527.406 294.479C526.765 293.254 527.106 291.144 527.202 289.645L525.518 290.039C526.733 285.713 527.374 283.36 530.152 279.649Z"/><path fill="#E57E43" d="M530.152 279.649C529.57 283.21 528.04 286.105 527.202 289.645L525.518 290.039C526.733 285.713 527.374 283.36 530.152 279.649Z"/><path fill="#E57E43" d="M533.789 275.925L537.504 271.639L538.302 272.266C535.919 275.389 532.754 280.485 533.2 284.587C532.925 286.629 531.801 289.515 530.449 291.147C529.388 291.01 529.833 291.238 529.107 290.484C530.653 285.427 532.979 281.7 533.789 275.925Z"/><path fill="#FBF5E7" d="M575.719 278.307C577.533 277.653 576.852 277.797 579.055 278.474C577.671 279.271 575.55 280.399 574.275 281.237C571.02 283.172 563.232 288.07 560.033 289.182C562.773 286.661 575.248 279.157 575.719 278.307Z"/><path fill="#FBF5E7" d="M538.302 272.266L539.444 272.22C539.871 274.616 534.807 281.785 533.2 284.587C532.754 280.485 535.919 275.389 538.302 272.266Z"/><path fill="#BE6B50" d="M519.319 279.037L523.145 286.443C520.032 286.58 517.894 282.903 518.084 280.058L519.319 279.037Z"/><path fill="#FBE7DC" d="M599.164 237.041L600.134 238.211C597.528 239.003 594.14 240.237 591.512 240.352C593.553 239.254 596.937 237.966 599.164 237.041Z"/><path fill="#F75826" d="M472.762 327.075L477.091 327.056C480.855 327.392 484.213 328.295 487.785 328.7C493.886 333.648 496.478 334.074 503.43 337.724C505.294 338.702 509.179 343.399 511.322 344.873C508.971 345.999 505.844 347.131 506.881 350.162C508.532 351.284 509.421 351.548 511.471 351.724C509.017 352.435 507.083 353.411 504.741 353.965C498.711 356.11 494.613 354.098 488.631 354.523C485.008 354.78 479.686 356.427 476.103 357.338C460.608 361.277 448.296 366.665 435.432 376.133C433.891 378.723 431.279 380.368 429.234 382.675L428.217 383.82L427.789 382.862L426.486 382.45L425.616 382.312L425.378 381.766C427.38 378.79 430.836 376.742 433.28 373.747C421.762 377.042 410.914 388.424 402.156 396.243C400.337 397.867 397.809 400.962 395.711 401.897L395.039 401.522C396.509 394.002 421.658 370.249 428.808 364.626C417.935 369.656 411.515 377.355 402.821 385.389C401.229 386.859 399.006 390.253 398.03 391.125L397.181 389.561C391.076 393.633 383.344 404.867 379.169 411.001C377.101 414.039 371.881 424.412 369.7 425.679C368.6 422.606 371.184 419.986 371.921 416.288C370.2 415.656 370.786 415.995 369.711 413.871C371.081 411.739 372.188 409.576 373.379 407.343C370.832 409.635 367.512 413.678 364.991 416.384C367.591 409.818 371.704 403.699 375.262 397.551C372.09 399.491 366.362 404.855 362.883 407.618C367.33 399.792 373.718 390.764 380.374 384.718L380.253 384.173C378.428 384.897 375.529 387.375 373.858 388.678C376.75 383.596 377.805 381.985 381.991 377.942L381.182 377.165C377.836 380.257 375.221 382.469 371.507 385.059C360.175 392.959 343.889 412.049 339.141 424.76L337.811 424.754C338.86 421.48 339.927 418.212 341.013 414.951L339.777 414.053C337.946 416.277 337.696 416.7 336.525 419.336L335.156 418.917C339.225 410.745 344.057 404.656 348.755 397.267C364.079 373.161 384.915 354.749 411.107 343.227C417.368 340.473 423.969 338.223 430.45 335.692C428.644 335.734 473.464 326.74 472.762 327.075Z"/><path fill="#FBF5E7" d="M435.432 376.133C433.891 378.723 431.279 380.368 429.234 382.675L428.217 383.82L427.789 382.862L426.486 382.45C429.392 380.783 432.338 378.231 434.978 376.09L435.432 376.133Z"/><path fill="#FBE7DC" d="M339.777 414.053C342.057 411.514 344.124 408.311 346.292 406.4C344.437 409.757 343.194 411.803 341.013 414.951L339.777 414.053Z"/><path fill="#FAC8C1" d="M381.182 377.165C382.425 376.189 383.887 374.755 385.35 374.637C384.8 376.062 383.272 376.949 381.991 377.942L381.182 377.165Z"/><path fill="#FDFDFB" d="M416.92 344.008C419.563 341.714 432.979 338.339 437.352 337.098C432.084 339.828 422.264 347.849 417.098 346.016L416.92 344.008Z"/><path fill="#FBF5E7" d="M416.92 344.008L417.098 346.016C415.184 347.635 411.026 347.582 408.384 347.784C411.46 346.155 413.666 345.284 416.92 344.008Z"/><path fill="#FD991A" d="M435.432 376.133C448.296 366.665 460.608 361.277 476.103 357.338C479.686 356.427 485.008 354.78 488.631 354.523C494.613 354.098 498.711 356.11 504.741 353.965C507.407 353.889 508.79 353.995 510.515 356.221L511.18 356.132C513.192 355.685 515.196 355.203 517.192 354.688C515.264 356.104 511.255 359.24 509.257 360.099C508.742 359.682 508.356 359.382 507.814 358.983C506.243 359.483 487.907 372.699 485.327 374.46L485.089 374.261L486.346 372.517C485.623 371.677 485.811 371.956 484.643 371.475C482.802 371.836 482.408 372.736 481.172 374.173L479.505 376.103L479.236 375.268C476.343 379.061 472.575 384.589 467.753 385.676C467.952 384.182 467.937 384.449 468.47 382.998C465.646 383.864 460.663 393.155 460.808 396.156C457.179 404.912 454.086 413.291 449.765 421.75C450.043 412.862 451.451 407.78 452.094 399.741C449.322 405.191 447.631 409.721 445.659 415.512C443.027 425.184 440.612 438.932 437.878 447.421C437.951 443.988 439.081 435.889 438.546 433.841L437.745 434.669C437.034 434.506 436.476 434.281 435.786 434.041L435.102 432.505C437.397 422.405 439.758 416.344 442.461 406.805C435.849 417.056 428.293 437.488 425.151 449.467L423.313 448.436L423.484 444.668L422.229 442.567C419.921 453.201 417.931 465.291 418.083 476.166C418.413 481.68 419.398 486.569 419.719 491.484C418.143 487.026 416.27 481.197 415.079 476.571C414.804 483.827 415.234 488.42 417.467 495.463C418.263 497.973 419.505 500.781 419.824 503.265L419.289 503.127C417.813 499.749 416.432 496.556 415.62 492.94C414.082 494.424 414.21 494.872 412.658 494.865L411.787 493.576C411.137 492.168 410.701 490.84 410.191 489.383C405.905 477.936 405.674 464.619 406.739 452.566C406.368 451.181 405.902 450.951 404.863 449.93L404.263 449.656C403.135 444.332 406.855 419.499 409.378 413.449C410.499 410.758 414.907 403.178 416.642 400.211C420.244 394.04 423.841 389.349 428.217 383.82L429.234 382.675C431.279 380.368 433.891 378.723 435.432 376.133Z"/><path fill="#F9A73E" d="M409.97 460.036C409.983 458.293 409.687 455.556 410.654 454.403C411.842 457.801 412.27 474.798 412.623 475.077L413.452 470.972C413.498 472.79 413.277 474.361 414.281 475.777C415.993 476.434 416.258 476.467 418.083 476.166C418.413 481.68 419.398 486.569 419.719 491.484C418.143 487.026 416.27 481.197 415.079 476.571C414.804 483.827 415.234 488.42 417.467 495.463C418.263 497.973 419.505 500.781 419.824 503.265L419.289 503.127C417.813 499.749 416.432 496.556 415.62 492.94C414.082 494.424 414.21 494.872 412.658 494.865L411.787 493.576C411.137 492.168 410.701 490.84 410.191 489.383L411.227 488.357C409.526 481.684 409.137 480.218 409.565 473.411C409.606 469.493 408.982 464.879 408.968 460.447L409.97 460.036Z"/><path fill="#FBF5E7" d="M410.919 473.179C411.474 477.035 411.858 479.788 412.845 483.556C413.382 485.606 415.478 491.339 415.62 492.94C414.082 494.424 414.21 494.872 412.658 494.865L411.787 493.576C411.137 492.168 410.701 490.84 410.191 489.383L411.227 488.357C409.526 481.684 409.137 480.218 409.565 473.411L410.919 473.179Z"/><path fill="#FCB749" d="M411.227 488.357C411.72 490.515 412.107 491.445 411.787 493.576C411.137 492.168 410.701 490.84 410.191 489.383L411.227 488.357Z"/><path fill="#F8E2C3" d="M409.97 460.036C410.154 464.425 410.47 468.808 410.919 473.179L409.565 473.411C409.606 469.493 408.982 464.879 408.968 460.447L409.97 460.036Z"/><path fill="#F9A73E" d="M408.791 436.147C408.97 437.566 408.763 437.513 409.416 438.614L409.783 437.694L410.356 437.714C411.335 439.1 410.397 438.526 411.027 439.849C410.284 447.592 408.582 452.358 408.968 460.447C408.982 464.879 409.606 469.493 409.565 473.411C409.137 480.218 409.526 481.684 411.227 488.357L410.191 489.383C405.905 477.936 405.674 464.619 406.739 452.566C407.478 450.162 408.269 439.783 408.791 436.147Z"/><path fill="#FBF5E7" d="M411.027 439.849L412.259 437.224L412.845 437.145L413.675 440.553L415.28 440.84C415.031 443.322 414.806 444.046 414.459 446.285C413.294 453.782 413.525 463.267 413.452 470.972L412.623 475.077C412.27 474.798 411.842 457.801 410.654 454.403C409.687 455.556 409.983 458.293 409.97 460.036L408.968 460.447C408.582 452.358 410.284 447.592 411.027 439.849Z"/><path fill="#FBF5E7" d="M429.234 382.675C430.187 383.28 430.808 383.658 431.71 384.328L431.654 384.69C430.164 386.749 417.878 405.959 418.089 405.862C418.032 404.841 417.993 404.478 418.059 403.46C417.961 401.996 417.436 401.444 416.642 400.211C420.244 394.04 423.841 389.349 428.217 383.82L429.234 382.675Z"/><path fill="#F48E38" d="M429.234 382.675C430.187 383.28 430.808 383.658 431.71 384.328L431.654 384.69C426.564 385.124 419.558 398.846 418.059 403.46C417.961 401.996 417.436 401.444 416.642 400.211C420.244 394.04 423.841 389.349 428.217 383.82L429.234 382.675Z"/><path fill="#FBF5E7" d="M415.705 407.725C411.794 420.215 410.75 423.197 408.791 436.147C408.269 439.783 407.478 450.162 406.739 452.566C406.368 451.181 405.902 450.951 404.863 449.93C408.335 436.063 407.135 420.562 415.705 407.725Z"/><path fill="#F9A73E" d="M438.546 433.841C440.354 428.045 441.27 418.422 443.336 413.358L443.931 413.4C444.516 414.402 444.774 414.764 445.659 415.512C443.027 425.184 440.612 438.932 437.878 447.421C437.951 443.988 439.081 435.889 438.546 433.841Z"/><path fill="#9E4621" d="M479.236 375.268C481.413 372.346 484.279 368.088 488.388 368.138C488.226 368.643 488.469 369.078 488.637 369.769C488.252 370.415 486.904 371.874 486.346 372.517C485.623 371.677 485.811 371.956 484.643 371.475C482.802 371.836 482.408 372.736 481.172 374.173L479.505 376.103L479.236 375.268Z"/><path fill="#FBF5E7" d="M417.563 428.438C416.63 432.665 415.703 436.509 415.28 440.84L413.675 440.553C413.988 434.266 414.246 433.832 417.563 428.438Z"/><path fill="#F8E2C3" d="M422.229 442.567C422.21 441.218 422.088 440.353 422.572 439.087C423.985 439.842 423.541 443.245 423.484 444.668L422.229 442.567Z"/><path fill="#FD991A" d="M601.935 298.898C604.33 298.489 605.454 298.506 607.918 298.478L608.295 299.583C612.369 300.42 611.735 302.424 616.263 302.125C617.779 302.06 620.311 301.865 621.74 301.901C640.1 300.44 639.087 299.331 655.415 307.872C668.923 315.185 677.76 323.176 688.644 333.669L686.191 335.37L685.849 335.435C686.796 337.668 687.752 339.023 689.048 341.046C691.353 344.393 692.595 346.259 694.425 349.849C693.642 350.313 693.037 350.767 692.196 351.018C688.689 349.401 687.571 348.432 684.633 346.047L683.961 347.696L683.252 347.786C679.899 345.958 674.607 339.795 671.864 336.837L670.64 336.046L670.071 336.291C669.831 338.91 672.082 340.022 671.998 342.484C669.404 342.389 667.551 340.408 665.772 338.653C658.873 331.847 651.021 328.117 642.166 324.461C645.164 327.049 649.566 330.631 652.183 333.433C646.118 330.398 643.294 328.762 636.835 326.63C645.635 332.511 650.093 335.558 657.884 343.086C655.775 345.685 655.769 343.571 655.818 345.29C659.932 349.854 662.196 352.286 663.898 358.221C654.549 348.724 644.405 336.762 631.273 333.088C632.756 334.211 633.647 334.68 634.507 336.335L634.122 336.993C631.006 336.914 620.557 330.801 616.523 328.974C622.741 334.924 627.314 337.06 633.139 344.384C626.039 341.495 619.681 336.38 612.094 334.358C604.906 332.443 597.624 333.347 590.447 334.761C598.284 335.941 604.923 335.796 612.782 336.283C609.304 337.42 601.838 339.748 598.377 340.292C592.853 341.161 588.711 341.11 582.965 342.522C585.563 343.414 588.145 344.477 590.703 345.488C583.424 344.372 578.469 343.112 571.009 342.591C566.608 342.155 567.138 338.103 565.769 334.413L565.421 333.493C570.283 333.11 575.223 332.968 580.102 332.775C577.278 331.821 576.118 331.428 573.087 330.946C570.764 330.465 569.094 330.857 567.031 329.784C571.89 328.28 575.095 326.726 580.197 325.8L581.877 324.438C579.015 323.852 576.264 323.604 573.364 323.293L573.014 323.017C571.772 322.816 570.73 322.603 569.506 322.342C568.649 321.378 568.045 320.985 567.97 319.748L564.87 319.978L566.755 318.187C564.875 318.299 563.725 318.426 561.866 318.21C563.815 317.102 564.934 316.539 566.517 314.982C570.021 309.985 580.315 310.049 586.069 306.682L586.389 305.418L586.205 304.441L585.066 303.822L585.035 303.391C587.993 300.721 598.07 299.438 601.935 298.898Z"/><path fill="#F8E2C3" d="M601.935 298.898C604.33 298.489 605.454 298.506 607.918 298.478L608.295 299.583C612.369 300.42 611.735 302.424 616.263 302.125C608.006 303.169 599.912 304.335 591.74 305.901C590.948 306.053 588.839 305.221 587.998 304.908C587.265 305.091 587.059 305.086 586.389 305.418L586.205 304.441L585.066 303.822L585.035 303.391C587.993 300.721 598.07 299.438 601.935 298.898Z"/><path fill="#F48E38" d="M621.74 301.901C640.1 300.44 639.087 299.331 655.415 307.872L653.452 308.627L627.478 303.434C624.865 301.892 624.98 302.129 621.74 301.901Z"/><path fill="#FBF5E7" d="M627.478 303.434C636.103 302.045 646.361 302.967 653.452 308.627L627.478 303.434Z"/><path fill="#F48E38" d="M671.864 336.837C673.119 336.726 673.424 336.612 674.65 336.264C677.064 337.587 683.172 343.874 684.633 346.047L683.961 347.696L683.252 347.786C679.899 345.958 674.607 339.795 671.864 336.837Z"/><path fill="#FBF5E7" d="M674.65 336.264C677.064 337.587 683.172 343.874 684.633 346.047L683.961 347.696L683.252 347.786C682.894 346.056 676.378 339.705 674.65 336.264Z"/><path fill="#D06A2C" d="M566.755 318.187C570.504 318.299 573.615 317.876 577.314 318.347C575.311 319.078 570.35 319.481 567.97 319.748L564.87 319.978L566.755 318.187Z"/><path fill="#9E4621" d="M581.877 324.438C583.298 324.662 584.475 324.746 585.779 325.354L584.572 325.058L585.954 325.823C584.042 326.569 582.302 326.079 580.197 325.8L581.877 324.438Z"/><path fill="#94381A" d="M584.11 314.451C589.685 314.652 600.565 317.786 603.636 322.69L603.16 323.066L601.814 322.321C589.621 316.411 586.171 320.596 579.554 318.331C580.322 316.923 582.662 315.514 584.11 314.451Z"/><path fill="#F75826" d="M508.131 413.945C511.428 417.344 507.628 422.077 507.932 426.204L510.179 426.905C510.272 428.802 508.409 433.613 507.756 435.764C514.282 441.843 508.581 441.606 506.754 446.451L507.104 447.194L509.268 447.958C508.523 449.968 506.639 455.908 505.462 457.156L505.628 457.708C507.355 458.03 508.771 458.007 509.983 459.007C509.628 462.162 505.13 463.507 506.348 466.838C509.313 466.374 508.269 465.159 509.826 466.022C510.928 470.686 507.104 476.096 507.228 479.223C509.561 479.849 509.34 479.389 510.554 480.909C510.411 483.842 509.33 484.325 509.944 486.274C512.081 486.61 511.68 486.2 512.713 487.491C513.496 491.596 509.306 501.43 508.051 507.628C510.155 508.435 511.822 509.021 513.818 510.103L508.95 514.478C510.971 515.582 512.697 516.269 514.097 518.05C514.556 520.979 512.334 520.498 512.824 523.696C515.954 526.795 519.204 529.919 522.294 533.042C523.039 536.637 523.177 538.794 526.073 541.189C527.042 541.99 527.629 542.603 527.921 543.738L527.139 545.2C527.49 546.345 527.541 546.317 528.259 547.299C527.469 548.317 527.465 548.244 526.332 548.898L526.904 549.654C527.107 549.933 527.309 550.213 527.512 550.493C525.378 553.011 514.454 552.032 509.769 553.054C513.296 553.765 524.641 555.426 526.667 557.268L523.311 558.322L523.295 558.725C528.714 560.626 531.533 560.998 536.494 564.106C535.205 565.209 533.447 566.323 533.012 567.7L534.853 569.723L534.703 570.303C527.777 571.209 526.093 569.055 517.164 571.028C528.46 573.997 535.066 574.268 544.263 581.99C539.642 581.55 535.782 580.796 531.272 579.635L531.07 580.247L532.308 581.352C531.275 582.187 530.742 582.474 529.611 583.147L529.656 583.853C532.46 584.503 539.56 585.679 540.991 587.781C540.421 588.836 539.668 589.1 538.44 589.444C522.861 593.805 506.937 588.955 492.47 583.111C491.442 582.696 490.943 581.79 490.478 580.873C490.098 577.225 492.885 573.827 494.889 570.555C495.92 571.304 496.398 572.597 497.074 573.829L497.618 573.743C497.67 572.623 497.699 571.704 497.683 570.584C499.495 569.247 500.434 569.683 503.043 569.186C501.62 567.067 498.394 567.566 497.51 565.305L498.227 563.684C496.19 561.22 492.577 564.851 489.698 560.811L489.828 560.118C491.554 559.784 491.785 560.074 492.627 559.028C492.457 558.647 492.088 557.764 491.899 557.429L490.963 553.269C491.612 551.823 492.764 551.829 494.707 550.868L494.832 550.112C493.669 548.836 493.45 548.669 492.558 547.135L492.861 546.282C495.575 547.003 498.591 548.059 500.87 545.973L500.825 545.406C496.854 543.455 493.744 543.431 489.456 543.401C490.013 540.893 490.499 538.37 490.915 535.835C491.555 535.684 492.192 535.521 492.826 535.347C491.356 534.13 491.618 534.77 491.024 533.285C492.25 532.329 492.904 531.755 494.04 530.686C493.778 529.276 492.532 528.772 491.068 527.58C492.735 522.023 495.035 516.869 495.72 511.204C493.859 511.51 492.745 511.92 491.49 510.511C491.832 505.644 499.549 502.046 499.991 499.028C499.097 497.456 499.72 497.939 498.251 497.317L496.009 498.424L495.509 497.896C495.53 493.827 501.151 493.25 501.377 489.026C500.066 487.866 497.956 489.655 494.874 489.361L494.26 488.478C494.553 482.845 501.31 480.461 502.758 477.785L502.317 477.45L499.735 478.657C499.463 477.303 499.474 477.322 498.845 476.095L498.043 476.109L496.463 479.569L495.851 479.793C493.497 474.784 494 468.577 499.179 465.643L499.76 465.32C500.103 463.625 500.552 462.477 499.967 460.888C498.692 460.913 497.417 460.908 496.143 460.873C492.011 458.364 496.175 452.126 497.879 448.901C493.035 441.706 498.512 438.299 501.485 432.697C502.86 430.105 500.071 431.412 501.086 428.75C502.679 424.573 505.727 419.004 506.015 414.638L508.131 413.945Z"/><path fill="#FBF5E7" d="M490.963 553.269C492.644 553.365 494.774 553.252 496.048 554.172C495.586 555.662 493.414 556.584 491.899 557.429L490.963 553.269Z"/><path fill="#1D1D5D" d="M768.834 616.446C769.603 617.73 767.88 652.104 767.848 656.406C773.978 647.46 783.692 645.445 793.238 650.745C806.032 657.847 809.337 678.33 801.803 690.28C796.865 698.111 789.629 701.778 780.889 703.933C770.85 705.406 766.944 703.264 757.203 702.257C755.319 702.062 745.948 703.029 743.041 703.169C744.755 701.495 746.631 699.619 747.475 697.33C749.376 692.172 748.962 644.245 747.534 638.718C746.6 635.105 742.901 634.332 741.592 631.26C742.193 630.028 746.522 629.364 748.315 628.9C756.947 626.665 762.659 622.619 768.834 616.446Z"/><path fill="#FDFDFB" d="M768.986 658.911C779.922 659.164 785.733 672.654 787.809 681.922C789.168 687.986 788.783 693.165 785.282 698.447C775.303 704.607 769.877 691.849 768.509 683.98C767.067 675.691 766.779 667.076 768.986 658.911Z"/><path fill="#FD991A" d="M521.843 356.085C533.405 359.485 547.225 364.229 557.511 370.424C558.678 369.756 558.542 369.7 559.516 368.676C562.216 369.876 565.642 371.295 568.19 372.638C569.348 373.293 569.868 373.646 571.125 374.122L570.512 375.376L568.034 376.002C568.637 377.829 572.559 382.079 573.994 383.705C578.953 389.322 583.035 395.277 587.299 401.427C589.06 403.507 595.344 412.355 595.602 414.636L595.391 414.716L593.749 416.211C599.193 425.646 606.044 444.848 608.679 455.419C607.82 457.26 607.794 460.267 605.471 460.813C603.784 458.082 605.293 454.82 602.37 451.891C601.113 447.701 600.451 445.473 598.602 441.564C599.474 446.745 600.027 449.659 600.023 454.874L598.479 455.547C597.625 451.301 596.761 448.775 594.692 445.02C595.914 459.861 598.527 468.804 592.991 482.535C593.603 465.261 592.608 459.568 586.49 442.802C586.303 447.463 587.195 451.984 587.034 457.218C584.248 450.302 584.62 445.701 582.855 439.154C579.229 425.699 567.73 407.69 558.59 397.321C560.599 402.63 564.149 409.344 566.613 414.715C570.836 423.92 574.307 431.976 577.477 441.562C570.786 435.604 570.431 424.024 559.842 414.181C560.085 416.952 563.353 424.305 564.232 428.38C561.171 424.154 558.994 420.347 556.705 415.643C553.439 409.728 548.884 402.758 545.339 396.637L543.231 395.794C541.034 394.136 540.771 392.956 539.558 390.457L537.336 387.427C533.048 381.77 520.951 370.61 519.37 367.931C520.867 363.418 521.132 360.785 521.843 356.085Z"/><path fill="#FBF5E7" d="M537.336 387.427C538.384 385.621 537.679 385.494 539.233 384.51C541.021 388.19 543.292 393.221 545.339 396.637L543.231 395.794C541.034 394.136 540.771 392.956 539.558 390.457L537.336 387.427Z"/><path fill="#F48E38" d="M537.336 387.427C538.384 385.621 537.679 385.494 539.233 384.51C539.137 387.017 539.429 387.46 540.256 389.913L539.558 390.457L537.336 387.427Z"/><path fill="#E8A578" d="M540.256 389.913C541.192 391.519 542.994 394.151 543.231 395.794C541.034 394.136 540.771 392.956 539.558 390.457L540.256 389.913Z"/><path fill="#9E4621" d="M559.516 368.676C562.216 369.876 565.642 371.295 568.19 372.638L564.716 373.53C561.775 372.475 560.278 371.79 557.511 370.424C558.678 369.756 558.542 369.7 559.516 368.676Z"/><path fill="#E57E43" d="M587.299 401.427C589.06 403.507 595.344 412.355 595.602 414.636L595.391 414.716C592.351 411.643 590.969 407.954 587.729 404.752L587.299 401.427Z"/><path fill="#FBF5E7" d="M587.729 404.752C590.969 407.954 592.351 411.643 595.391 414.716L593.749 416.211C591.9 413.116 588.824 408.019 587.729 404.752Z"/><path fill="#9E4621" d="M568.19 372.638C569.348 373.293 569.868 373.646 571.125 374.122L570.512 375.376L568.034 376.002C567.289 374.638 566.136 374.274 564.716 373.53L568.19 372.638Z"/><path fill="#1D1D5D" d="M560.302 614.693C561.202 614.645 562.104 614.639 563.005 614.675C573.759 615.045 590.114 621.222 590.31 633.845C590.415 640.615 579.129 647.616 573.006 647.031C571.885 646.277 568.4 637.231 567.274 634.638C560.377 619.79 543.059 616.126 538.706 634.988C533.122 659.185 559.098 700.038 586.185 681.458C590.846 677.346 592.663 671.685 595.161 666.143C595.103 675.178 592.946 684.584 587.355 691.853C581.868 699.022 573.728 703.684 564.767 704.79C555.514 705.91 546.198 703.274 538.902 697.473C520.573 682.704 517.645 646.694 533.049 628.755C540.616 619.941 548.798 615.694 560.302 614.693Z"/><path fill="#1D1D5D" d="M196.255 615.189C225.267 612.289 242.528 642.338 209.68 647.612C209.334 646.198 208.931 644.797 208.474 643.415C206.183 636.475 201.283 626.253 194.405 623.186C186.786 619.772 179.632 624.314 177.301 631.891C171.758 649.906 182.987 677.617 201.374 684.133C208.822 686.772 215.777 685.908 222.625 682.438C225.685 679.786 226.322 679.259 228.695 675.825C230.413 673.339 230.609 669.631 231.962 668.497L232.454 669.027C232.911 673.108 232.006 674.456 231.181 678.183C228.34 691.021 218.15 702.474 204.434 704.382C150.582 711.872 144.733 620.276 196.255 615.189Z"/><path fill="#1D1D5D" d="M309.888 645.959C310.149 646.256 310.454 646.845 310.437 647.221C309.747 663.033 307.934 680.126 310.45 695.769C310.829 698.125 312.903 701.015 314.338 702.98L283.79 703.248C291.407 693.15 289.353 682.868 288.923 670.909C288.817 667.967 284.81 662.265 282.307 661.012C280.996 662.122 280.939 664.897 279.955 666.179C275.749 671.658 265.185 666.79 265.527 660.301C265.742 656.206 270.538 655.357 273.277 653.322L273.163 652.496C271.272 650.715 268.118 650.324 266.471 652.405C260.015 660.561 260.825 674.078 260.932 683.75C260.81 693.065 260.774 695.332 265.936 703.059L235.835 703.061C236.84 701.637 238.812 698.863 239.365 697.359C242.103 689.917 241.311 673.537 240.097 666.038C238.2 663.503 235.647 661.667 233.175 659.641C245.044 657.152 252.877 656.323 261.407 646.5L261.645 658.195C263.497 652.918 265.727 646.897 272.411 646.484C274.664 646.324 276.875 647.148 278.472 648.744C281.726 651.941 281.801 656.333 281.853 660.524C294.9 657.197 300.675 656.145 309.888 645.959Z"/><path fill="#1D1D5D" d="M429.012 648.214C437.642 648.129 448.076 649.863 453.419 657.368C463.482 671.503 455.101 688.712 464.6 703.162C456.318 703.225 448.036 703.195 439.754 703.07C439.546 700.034 439.699 697.342 439.819 694.307C438.576 696.061 436.771 698.37 435.151 699.783C431.086 703.351 425.756 705.133 420.362 704.729C414.836 704.328 411.815 702.163 408.412 698.102C397.045 681.038 416.238 666.811 431.469 665.786C434.838 665.559 435.766 665.707 439.129 666.225C439.793 664.307 439.261 660.795 438.981 658.65C438.179 652.506 431.43 649.787 425.949 651.226C424.628 651.573 423.437 652.045 422.787 653.222C425.032 656.327 427.452 659.135 426.468 663.127C424.345 666.081 417.137 666.696 414.87 664.566C404.203 654.543 420.473 648.871 429.012 648.214Z"/><path fill="#FDFDFB" d="M435.749 667.877C440.323 669.187 440.83 677.454 440.741 681.561C440.568 689.491 439.594 694.112 430.792 693.484C420.793 687.151 427.024 672.026 435.749 667.877Z"/><path fill="#1D1D5D" d="M617.392 648.623C625.174 647.775 635.166 648.524 641.646 653.303C655.934 663.841 648.693 683.726 653.963 698.069C654.673 700.001 656.612 701.762 658.087 703.16L631.773 703.03C631.568 699.533 631.812 696.672 632.041 693.184C631.434 694.32 630.785 695.432 630.094 696.518C624.216 705.585 612.581 707.164 603.828 701.226C599.852 697.493 598.068 694.656 597.534 689.101C596.16 674.827 612.16 667.907 623.82 666.048C625.606 665.763 629.055 666.299 631.144 666.273C633.67 662.861 630.409 654.99 627.69 652.534C625.389 650.454 618.244 649.903 615.809 652.619C615.812 654.569 617.548 656.081 618.355 657.931C621.671 664.317 612.405 667.563 608.013 664.992C595.66 657.762 610.084 650.189 617.392 648.623Z"/><path fill="#FDFDFB" d="M628.613 667.8L629.898 668.324C632.134 671.58 632.826 679.628 632.718 683.65C632.51 691.329 630.198 693.84 622.881 693.485C619.21 691.037 619.181 690.042 617.645 685.924C618.79 677.105 620.246 672.068 628.613 667.8Z"/><path fill="#1D1D5D" d="M837.319 648.207C866.844 646.188 871.276 676.867 831.433 681.225C841.942 695.163 852.227 693.735 862.788 681.24C861.662 685.453 861.421 686.936 859.593 690.943C858.755 692.49 857.795 693.968 856.723 695.362C853.008 700.194 847.516 703.34 841.469 704.101C803.661 708.773 795.223 652.089 837.319 648.207Z"/><path fill="#FDFDFB" d="M831.541 652.439C832.291 652.432 833.041 652.476 833.785 652.573C843.847 653.794 845.64 670.266 835.378 677.273L830.183 679.291C826.042 670.912 821.262 658.334 831.541 652.439Z"/><path fill="#D06A2C" d="M589.899 278.348C600.204 275.755 613.74 271.91 623.971 271.48C625.817 271.52 627.662 271.544 629.508 271.553L629.777 272.088L629.59 272.364C626.729 272.781 624.002 273.061 621.25 273.938L621.276 274.231C625.65 273.994 637.222 273.47 641.132 274.858L641.37 275.45C640.059 275.782 638.754 276.139 637.457 276.52C640.214 277.897 643.187 277.117 646.059 278.385L645.766 278.794C637.265 279.53 630.553 280.162 621.989 281.076C623.517 281.909 623.966 281.776 624.465 283.017C621.243 283.859 619.73 284.036 616.447 284.409C606.617 285.514 596.195 288.307 586.118 289.628C585.212 290.406 585.255 290.075 585.007 290.94C589.296 291.108 603.923 289.192 609.976 288.967C612.364 289.154 615.226 288.765 617.259 289.636C617.725 290.32 618.004 290.777 618.408 291.5C624.035 292.803 631.348 291.823 636.516 294.135L636.624 294.731C635.862 295.158 634.361 295.863 633.515 295.729C624.164 294.257 615.923 295.065 606.538 296.084L608.738 297.605L607.918 298.478C605.454 298.506 604.33 298.489 601.935 298.898C598.07 299.438 587.993 300.721 585.035 303.391L585.066 303.822L586.205 304.441L586.389 305.418L586.069 306.682C580.315 310.049 570.021 309.985 566.517 314.982C563.656 315.796 562.357 316.529 559.758 317.855C557.45 316.195 557.069 316.074 554.319 315.306C555.879 314.302 555.906 314.253 557.117 312.993L556.883 312.322L555.155 311.695C555.442 310.545 557.393 309.472 558.59 308.586L558.045 308.196C555.156 308.01 547.652 308.422 545.546 310.344L545.095 310.031C545.432 308.739 545.724 307.688 545.871 306.351L545.957 305.506C548.566 299.857 554.373 291.806 560.033 289.182C563.232 288.07 571.02 283.172 574.275 281.237C575.55 280.399 577.671 279.271 579.055 278.474C586.337 275.688 590.907 274.009 598.558 272.509C595.293 274.368 591.993 275.716 588.551 277.209L589.899 278.348Z"/><path fill="#E86431" d="M579.055 278.474C586.337 275.688 590.907 274.009 598.558 272.509C595.293 274.368 591.993 275.716 588.551 277.209C586.773 277.948 577.436 281.431 577.026 282.696L574.275 281.237C575.55 280.399 577.671 279.271 579.055 278.474Z"/><path fill="#E57E43" d="M616.309 282.347C618.765 281.38 619.43 281.005 621.989 281.076C623.517 281.909 623.966 281.776 624.465 283.017C621.243 283.859 619.73 284.036 616.447 284.409C616.519 283.565 616.448 283.857 616.005 282.896L616.309 282.347Z"/><path fill="#FBE7DC" d="M616.309 282.347C618.765 281.38 619.43 281.005 621.989 281.076C623.517 281.909 623.966 281.776 624.465 283.017C622.943 282.492 618.273 282.465 616.309 282.347Z"/><path fill="#FBF5E7" d="M588.551 277.209L589.899 278.348C587.811 279.126 578.619 282.789 577.026 282.696C577.436 281.431 586.773 277.948 588.551 277.209Z"/><path fill="#FBF5E7" d="M601.553 297.878L600.609 297.724L601.186 297.085C603.601 296.274 604.006 296.14 606.538 296.084L608.738 297.605L607.918 298.478C605.454 298.506 604.33 298.489 601.935 298.898L601.553 297.878Z"/><path fill="#E57E43" d="M601.553 297.878C604.336 297.329 605.95 297.494 608.738 297.605L607.918 298.478C605.454 298.506 604.33 298.489 601.935 298.898L601.553 297.878Z"/><path fill="#E8A578" d="M585.007 290.94C583.333 290.694 582.344 290.807 581.118 289.899C582.868 289.245 584.237 289.513 586.118 289.628C585.212 290.406 585.255 290.075 585.007 290.94Z"/><path fill="#1D1D5D" d="M340.852 648.221C348.025 648.346 357.822 649.073 362.533 655.31C366.943 661.147 360.88 669.567 354.056 666.864C347.137 664.124 350.649 658.693 353.117 654.192C348.997 652.106 335.525 648.308 333.867 658.088C332.824 664.243 349.509 668.028 354.469 669.915C360.288 672.13 367.906 678.014 367.236 685.983C365.634 703.458 349.068 705.314 335.875 704.512C329.37 704.003 316.29 700.798 315.429 692.784C314.628 685.333 326.231 681.934 330.813 687.192C333.027 689.733 329.89 694.569 329.569 697.356C329.163 703.115 336.516 702.072 339.607 702.553C343.551 703.167 349.984 697.78 348.678 694.306C344.807 684.004 328.466 684.966 321.068 678.396C317.511 675.238 315.409 672.136 315.076 667.346C314.771 651.774 328.628 648.784 340.852 648.221Z"/><path fill="#1D1D5D" d="M492.305 616.415C492.651 616.768 492.822 617.218 492.896 617.71C493.57 622.233 492.492 629.405 492.332 634.121C491.94 645.663 490.655 686.45 492.884 695.317C493.698 698.554 495.033 700.571 497.091 703.108C493.214 703.105 468.667 703.519 467.182 702.565C468.697 700.801 471.724 697.58 471.794 695.251C472.357 676.565 472.389 657.507 471.626 638.824C471.463 634.82 465.598 634.34 465.403 630.78C467.022 629.548 469.558 629.689 471.779 629.008C480.689 626.278 486.077 623.012 492.305 616.415Z"/><path fill="#1D1D5D" d="M695.099 646.561C705.574 645.947 709.551 657.633 704.628 665.566C701.055 671.324 690.455 667.372 690.424 660.897C690.405 656.914 695.158 655.515 697.749 652.859C693.166 646.268 688.23 656.006 687.386 660.265C685.202 671.278 684.653 684.722 686.85 695.797C687.408 698.607 688.988 700.34 690.244 702.611C689.079 703.534 688.525 703.173 686.625 703.189C677.563 703.233 668.5 703.232 659.438 703.186C666.2 696.435 665.992 691.608 665.838 682.649C665.634 670.808 667.691 667.847 658.209 659.959C669.73 657.515 678.804 655.497 686.365 646.093C686.532 649.351 686.335 652.765 686.222 656.035C688.767 650.672 689.596 649.187 695.099 646.561Z"/><path fill="#1D1D5D" d="M394.917 632.125L396.105 632.724C397.319 636.423 395.127 646.448 394.314 650.378C397.335 650.23 406.167 649.246 407.785 652.013C405.509 654.115 399.149 653.553 395.93 653.497C396.022 665.907 395.305 680.069 396.469 692.481C396.9 697.074 402.116 695.385 405.129 694.438C401.078 699.855 399.895 701.4 393.479 703.522C392.852 703.582 392.225 703.637 391.597 703.685C371.648 705.192 375.713 690.603 375.364 676.687C375.169 668.925 375.432 661.195 375.031 653.417C372.256 653.475 370.103 653.719 367.456 652.91L367.199 651.49L367.052 652.665L366.944 651.768C369.114 649.479 371.691 651.172 375.504 650.033C385.351 647.094 390.111 640.463 394.917 632.125Z"/><path fill="#1D1D5D" d="M735.213 645.391L735.467 645.65C736.17 647.413 734.255 662.351 734.589 665.95C735.676 677.67 731.024 693.962 740.003 703.121L709.462 703.059C715.468 695.534 714.694 690.151 714.759 680.964C714.793 676.224 715.13 671.427 713.8 666.837C713.042 664.217 708.833 662.434 708.398 660.398C709.983 659.402 713 658.767 714.837 658.317C725.979 655.587 728.306 654.149 735.213 645.391Z"/><path fill="#1D1D5D" d="M296.54 620.57C303.3 620.136 309.173 625.172 309.777 631.919C310.38 638.666 305.494 644.664 298.764 645.436C294.258 645.954 289.825 643.987 287.185 640.298C284.545 636.61 284.113 631.78 286.057 627.681C288 623.582 292.013 620.86 296.54 620.57Z"/><path fill="#1D1D5D" d="M720.546 620.639C727.266 619.234 733.857 623.526 735.291 630.24C736.725 636.954 732.462 643.564 725.754 645.027C719.005 646.499 712.345 642.204 710.903 635.448C709.46 628.693 713.784 622.052 720.546 620.639Z"/><path fill="#1D1D5D" d="M265.356 730.005C266.499 729.996 267.372 730.048 268.502 730.11C271.405 731.903 274.538 739.189 276.522 742.748C278.749 739.531 282.313 730.331 286.127 729.696L287.008 730.431C288.133 733.507 288.939 747.89 286.361 750.429C284.975 750.621 284.951 750.766 283.733 750.165L283.521 748.625L283.502 738.987C281.929 741.819 279.757 747.345 276.384 747.727C273.389 746.656 271.265 741.444 269.678 738.446C269.712 741.084 270.098 748.125 268.968 750.214C267.422 750.251 266.987 750.438 265.692 749.638C264.92 745.467 265.311 734.799 265.356 730.005Z"/><path fill="#1D1D5D" d="M366.01 730.058C366.63 730.036 368.589 729.963 368.978 730.25C371.894 732.408 375.532 739.445 377.285 742.429C378.912 739.888 383.774 729.191 386.613 730.376C388.921 733.616 388.552 746.504 387.913 750.353C386.381 750.818 386.482 750.766 384.896 750.45C383.682 749.051 384.071 749.443 383.944 747.125L383.961 739.225C383.054 740.744 382.167 742.274 381.298 743.815C380.014 746.112 379.443 747.307 376.927 748.019C374.245 747.066 371.665 740.886 370.236 738.084C370.326 741.862 371.619 747.758 368.782 750.279C366.948 750.466 367.676 750.74 366.362 749.946C365.534 745.684 365.951 734.829 366.01 730.058Z"/><path fill="#1D1D5D" d="M461.47 729.945C463.205 729.911 464.939 729.892 466.673 729.889C476.066 729.891 482.448 735.634 473.432 742.781C474.528 744.974 477.488 748.11 476.615 750.293L474.518 750.673L472.756 750.316C469.794 747.405 471.307 743.876 466.913 743.455C465.304 745.237 467.085 746.477 465.541 749.539C464.227 750.554 462.88 751.109 461.561 749.862C461.131 745.076 461.45 735.119 461.47 729.945Z"/><path fill="#FDFDFB" d="M467.256 734.056C469.931 734.24 471.341 733.912 472.673 736.363C472.48 738.19 472.393 738.132 471.333 739.545C468.293 739.538 465.913 740.088 465.59 736.156C466.154 734.813 466.055 734.852 467.256 734.056Z"/><path fill="#1D1D5D" d="M581.575 730.14C586.253 730.064 592.603 729.488 596.405 732.715C600.103 735.853 596.315 740.114 593.793 742.309C594.792 744.462 597.023 747.544 596.915 749.528C595.693 750.779 595.51 750.32 593.059 750.368C591.691 747.833 590.688 745.737 588.871 743.483C587.494 742.904 588.17 742.89 586.822 743.248C585.274 746.285 588.028 748.41 585.127 750.604C580.362 750.164 581.706 745.193 581.628 741.516C581.548 737.749 581.616 733.919 581.575 730.14Z"/><path fill="#FDFDFB" d="M586.483 733.975C588.733 733.927 590.38 733.754 592.176 735.103C593.105 736.611 592.869 737.151 592.675 738.92C590.638 739.61 589.046 739.999 587.107 739.025C586.056 737.409 586.395 735.97 586.483 733.975Z"/><path fill="#1D1D5D" d="M816.513 730.1C821.042 730.029 827.102 729.515 830.718 732.672C834.349 735.843 831.132 740.325 828.636 742.796C829.681 744.646 831.759 747.682 831.676 749.6C830.388 750.876 830.186 750.417 827.701 750.5C826.252 747.895 824.748 745.321 823.191 742.78L821.841 742.839C821.44 745.249 821.198 748.163 819.632 749.986C817.809 750.71 818.685 750.674 816.937 750.346C816.102 748.409 816.498 733.21 816.513 730.1Z"/><path fill="#FDFDFB" d="M821.024 733.969L821.548 733.992C823.8 734.108 825.489 734.051 827.003 735.745C827.482 737.831 827.364 737.124 826.701 739.4C824.661 740.108 823.402 740.368 821.584 739.552C820.625 737.913 820.952 735.937 821.024 733.969Z"/><path fill="#1D1D5D" d="M648.961 730.043C650.986 729.914 656.382 730.189 656.192 732.986C654.356 735.619 653.109 733.728 649.378 734.998L649.028 735.844C649.847 737.842 653.494 742.273 655.722 742.092C656.195 740.468 656.245 739.697 657.487 738.551C659.001 738.183 658.894 738.15 660.369 738.618C661.166 741.183 659.349 743.619 658.091 745.801L658.528 746.577C659.442 747.753 660.396 748.784 659.979 750.254C658.301 750.639 657.727 750.002 656.066 749.61C650.91 748.392 646.92 753.825 642.58 747.805C638.623 743.611 644.687 739.889 644.804 737.866C645.032 733.912 642.494 732.856 648.961 730.043Z"/><path fill="#FDFDFB" d="M647.029 740.836C648.34 741.795 651.586 745.101 651.708 746.694C649.183 746.85 648.354 746.964 646.599 745.038C646.131 743.082 646.354 742.837 647.029 740.836Z"/><path fill="#1D1D5D" d="M311.86 729.8C312.135 729.797 313.48 729.784 313.766 729.858C317.036 730.705 323.161 739.08 325.553 741.996C325.559 738.328 325.45 734.059 325.898 730.474L326.648 729.938C328.559 730.093 327.757 729.744 329.167 730.954C330.585 734.112 330.855 748.443 328.775 750.727C324.015 749.512 319.187 741.303 316.187 737.015C316.315 741.13 317.989 747.505 314.744 750.156C312.678 750.49 313.524 750.718 311.972 750.008C311.416 746.073 311.824 734.537 311.86 729.8Z"/><path fill="#1D1D5D" d="M545.33 742.909C545.26 738.192 544.863 734.325 546.515 729.888L547.911 729.575C550.516 733.656 550.017 745.937 549.257 750.681C548.914 750.666 547.592 750.593 547.365 750.542C543.856 749.758 538.397 740.802 535.943 737.667C535.812 741.552 536.792 746.876 535.047 749.84C533.34 750.659 534.258 750.433 532.135 750.21C530.816 748.129 531.503 733.544 531.572 730.099C532.028 730.098 533.136 730.129 533.516 730.167C536.92 730.507 543.068 739.96 545.33 742.909Z"/><path fill="#1D1D5D" d="M485.836 730.12C491.178 729.984 499.919 729.177 501.767 735.668C502.963 739.871 498.766 743.066 495.11 743.792C493.202 743.763 492.675 743.769 490.805 744.069C489.619 746.764 491.383 747.868 489.949 750.332C488.203 750.78 488.331 750.797 486.638 750.186C485.12 748.135 485.864 733.468 485.836 730.12Z"/><path fill="#FDFDFB" d="M490.445 733.988C492.405 733.967 494.499 733.756 496.01 734.937C496.964 736.574 496.598 737.59 496.359 739.503C494.57 739.744 492.552 740.284 491.063 739.477C490.037 737.961 490.382 735.917 490.445 733.988Z"/><path fill="#1D1D5D" d="M689.391 730.14C691.763 729.782 694.171 729.723 696.558 729.967C698.02 730.127 698.983 730.374 699.93 731.501C700.401 733.619 700.456 732.612 699.818 734.639C697.086 735.87 691.215 733.009 688.542 735.164C682.768 739.819 689.945 751.4 696.142 745.368C696.544 743.547 696.726 744.322 696.109 742.871L692.865 742.321C691.476 741.19 691.923 741.533 691.62 739.128C694.503 739.029 697.789 739.094 700.708 739.082L700.902 748.564C697.209 750.261 693.292 751.339 689.258 750.132C686.602 749.341 684.389 747.493 683.138 745.021C679.765 738.502 683.193 732.906 689.391 730.14Z"/><path fill="#1D1D5D" d="M441.896 729.964C443.768 729.847 443.945 729.815 445.773 730.09C447.179 731.456 453.005 747.268 453.781 749.767L453.521 750.139C451.578 750.324 450.943 750.667 449.307 749.982C448.708 748.513 448.321 746.856 446.967 745.995C444.623 746.029 441.742 745.716 440.061 746.987C439.752 748.37 439.701 749.188 438.827 750.309C437.232 750.634 435.367 751.064 434.277 749.611C437.103 743.177 439.645 736.621 441.896 729.964Z"/><path fill="#FDFDFB" d="M444.062 735.803C445.143 738.199 445.942 739.538 446.2 742.167L445.295 743.194C443.322 742.741 443.275 743.097 442.277 741.848C442.02 739.933 443.272 737.682 444.062 735.803Z"/><path fill="#1D1D5D" d="M509.021 730.245C511.621 730.224 521.793 729.586 523.18 730.992C523.265 733.195 523.555 732.595 522.554 734.214C520.24 735.164 517.977 733.999 514.732 734.51C513.395 735.638 513.833 734.938 513.471 736.738C514.505 739.766 518.742 736.863 521.807 738.599C522.067 740.42 522.207 739.589 521.467 741.194C518.582 742.77 516.275 740.577 513.017 742.709C514.221 749.161 518.726 744.63 523.345 747.127C523.94 748.736 523.818 747.87 523.262 749.842C521.823 750.729 511.361 750.33 508.791 750.326C509 743.646 508.741 737.003 509.021 730.245Z"/><path fill="#1D1D5D" d="M238.567 730.079C240.154 729.964 240.88 729.802 242.426 730.255C245.497 733.496 241.813 740.649 243.414 743.555C246.842 749.777 253.166 745.673 251.401 739.163C250.954 737.515 251.463 732.137 251.985 730.695C253.334 729.683 252.97 730.026 255.228 730.264C256.238 731.33 255.875 731.408 255.914 733.375C255.958 736.527 256.899 746.069 253.763 748.667C249.728 752.01 241.015 751.477 239.208 745.731C237.947 741.724 238.457 734.732 238.567 730.079Z"/><path fill="#1D1D5D" d="M198.324 729.956C200.271 730.046 201.674 730.104 202.698 731.879C203.95 734.049 209.794 748.916 209.465 750.29C203.761 751.8 205.884 748.18 203.053 746.388C201.05 746.326 197.57 745.889 196.09 746.967C195.725 748.135 195.527 748.704 195.034 749.82C193.721 750.651 191.997 750.676 190.646 749.967C191.469 746.106 196.595 734.112 198.324 729.956Z"/><path fill="#FDFDFB" d="M199.8 736.309C201.173 737.589 202.4 741.007 201.822 742.893C200.375 742.847 199.485 743.004 198.379 742.114C197.994 739.917 198.915 738.691 199.8 736.309Z"/><path fill="#1D1D5D" d="M736.914 730.196C737.416 730.212 739.974 730.301 740.055 730.373C742.824 732.841 746.542 745.158 748.366 748.857L748.696 749.519L748.39 750.252C746.721 751.175 747.545 751.096 745.873 750.757C743.597 748.991 743.758 748.472 742.372 746.067C730.046 745.706 737.616 748.913 731.494 751.446C730.048 751.036 730.71 751.369 729.649 750.145C729.503 747.664 735.675 733.261 736.914 730.196Z"/><path fill="#FDFDFB" d="M738.556 735.801C739.589 737.186 741.232 740.908 740.813 742.639L739.826 743.02C737.998 742.74 738.074 743.055 736.894 742.012C736.471 740.209 737.815 737.667 738.556 735.801Z"/><path fill="#1D1D5D" d="M339.446 730.015L342.791 730.092C346.745 732.963 338.633 751.017 351.359 745.166C354.714 741.126 349.64 731.042 354.263 729.392C356.868 730.58 356.63 730.958 356.804 733.375C356.837 736.739 356.861 740.504 356.775 743.414C356.536 751.504 345.679 752.66 341.085 747.896C338.339 745.05 339.384 733.309 339.446 730.015Z"/><path fill="#1D1D5D" d="M793.526 730.155C795.917 730.177 806.047 729.799 807.423 730.608L807.703 732.317C806.023 736.502 801.993 732.767 798.426 734.599C797.629 736.115 797.889 735.675 798.134 737.717C800.445 739.019 803.61 737.347 805.902 738.698C806.652 740.281 806.596 739.502 806.217 741.101C803.901 742.583 800.19 740.593 797.907 742.143C797.953 743.431 798.043 744.754 798.114 746.045C799.833 747.533 804.712 745.487 808.553 747.738L808.664 748.881C806.81 751.348 796.84 750.361 793.441 750.344C793.419 743.614 793.447 736.884 793.526 730.155Z"/><path fill="#1D1D5D" d="M755.567 730.165L772.002 730.167C770.094 734.502 764.377 742.258 761.497 746.424C764.616 746.493 767.685 745.733 770.402 746.734C771.695 748.157 771.269 747.769 771.244 750.352C767.981 750.351 755.88 751.63 755.197 747.958C756.157 745.332 762.587 737.06 764.693 734.182C761.68 734.071 758.756 734.81 756.215 733.711C755.162 732.315 755.544 732.395 755.567 730.165Z"/><path fill="#1D1D5D" d="M418.677 730.099C422.035 729.775 425.106 729.52 427.851 731.45C428.222 732.931 428.21 732.822 427.673 734.258C424.643 735.823 412.746 731.243 415.741 742.016C416.172 743.602 417.239 744.941 418.689 745.715C421.489 747.194 424.073 746.196 426.897 745.331L427.37 745.003L427.949 745.46C428.518 752.192 420.63 751.578 416.456 749.755C413.93 748.681 411.947 746.63 410.958 744.069C408.283 737.099 412.278 732.293 418.677 730.099Z"/><path fill="#94381A" d="M671.27 437.079L673.193 437.114C675.605 437.02 675.901 438.287 677.093 440.215L677.481 440.853L678.276 438.673L678.839 438.98C680.209 443.147 681.039 458.748 678.13 461.981C676.304 460.723 677.777 460.014 675.913 458.075C674.665 459.27 673.747 462.249 673.029 464.054C672.375 462.54 673.28 450.114 672.931 446.767C672.488 442.51 672.431 441.635 671.27 437.079Z"/><path fill="#1D1D5D" d="M602.47 730.093C609.47 729.712 609.251 732.32 612.13 737.946C613.87 734.498 615.334 730.686 619.451 729.574L619.931 729.988C620.592 732.869 617.907 736.191 616.302 738.776C612.756 744.713 615.448 746.611 613.555 749.928C611.745 750.456 611.736 750.355 609.945 750.069C608.554 747.701 610.052 744.08 609.293 742.049C607.896 738.317 604.596 733.427 602.47 730.093Z"/><path fill="#1D1D5D" d="M557.12 730.151C561.565 730.085 570.721 729.211 573.894 731.264C574.498 732.703 574.461 731.987 574.003 733.484C572.255 734.318 570.033 734.055 568.033 734.028L567.98 744.8C567.986 747.475 568.243 750.573 564.606 750.514C562.75 748.398 563.521 737.59 563.568 733.976C561.658 734.052 559.868 734.253 558.024 733.767C556.786 732.321 557.2 732.589 557.12 730.151Z"/><path fill="#1D1D5D" d="M217.542 730.122C219.435 730.054 220.033 730.033 221.892 730.285C222.549 732.32 222.263 743.121 222.241 746.134C225.287 746.219 228.056 745.439 230.603 746.385C231.919 747.956 231.466 747.714 231.477 750.384C227.033 750.419 221.787 750.595 217.424 750.228C217.414 743.526 217.453 736.824 217.542 730.122Z"/><path fill="#B8481A" d="M621.227 440.435C623.158 441.169 625.554 440.972 626.471 441.567C627.697 445.53 628.31 460.688 625.235 463.497L624.716 462.919C624.344 462.136 623.919 461.341 623.022 460.965C622.705 462.674 622.724 463.081 621.765 464.58C621.341 462.866 620.997 442.61 621.227 440.435Z"/><path fill="#1D1D5D" d="M709.402 730.005C711.304 729.977 711.492 729.963 713.341 730.318C713.853 732.302 713.757 743.34 713.792 746.28C716.999 746.499 719.879 745.67 722.593 746.727C723.853 748.163 723.431 747.895 723.504 750.374L709.488 750.407C709.395 743.607 709.367 736.806 709.402 730.005Z"/><path fill="#F75826" d="M363.158 347.954L364.008 348.46C363.064 352.6 350.156 364.167 346.381 367.65C347.42 365.775 349.661 363.221 349.366 361.336L348.645 361.414C345.68 363.017 342.687 364.567 339.666 366.062C346.912 356.762 352.823 353.278 363.158 347.954Z"/><path fill="#F75826" d="M396.507 331.816L396.65 332.005C396.423 333.148 396.399 333.594 396.56 334.748C394.293 337.413 388.705 339.686 385.499 341.025L385.662 340.818C382.053 341.686 380.573 342.959 377.621 345.098L376.969 345.234L376.878 344.718L380.08 342.008L379.745 341.527L378.253 341.9C378.427 340.045 379.606 338.481 380.744 337C384.386 332.253 390.887 332.264 396.507 331.816Z"/><path fill="#B8481A" d="M445.712 455.32L446.524 456.019C447.453 459.126 443.013 476.341 442.104 480.486C441.806 477.563 441.871 474.232 441.845 471.265C440.683 472.042 440.84 472.16 440.041 473.492L439.661 473.184C439.311 469.667 437.975 460.991 440.108 458.264C444.038 458.067 444.299 458.647 445.712 455.32Z"/><path fill="#1D1D5D" d="M297.483 729.906C299.269 729.852 300.09 729.684 301.755 730.368C302.284 733.317 302.099 746.595 302.119 750.42C300.054 750.514 299.66 750.598 297.689 750.141C297.192 746.783 297.471 733.988 297.483 729.906Z"/><path fill="#1D1D5D" d="M779.409 730.15C781.062 730.127 782.36 729.863 783.625 730.8C784.219 733.967 783.927 746.438 783.915 750.388C782.017 750.412 781.593 750.395 779.722 750.124C778.976 747.182 779.357 733.921 779.409 730.15Z"/><path fill="#E86431" d="M346.61 415.32C348.063 412.773 350.933 407.607 353.793 406.573C355.544 405.939 355.905 406.562 357.465 407.421C358.312 408.148 358.317 407.922 358.664 408.811C353.663 416.015 349.887 421.809 345.377 429.347C346.368 426.132 350.051 418.143 350.286 416.312L349.757 415.967L346.61 415.32Z"/><path fill="#F75826" d="M340.175 306.6C344.536 300.71 348.517 298.05 356.017 296.94C358.43 296.583 362.771 296.194 364.482 298.311C364.052 301.877 355.657 301.22 352.068 302.733C349.742 304.408 347.545 305.233 344.931 306.388C346.762 304.414 348.061 303.282 350.066 301.555L349.918 300.762C346.132 302.093 343.781 304.47 340.175 306.6Z"/><path fill="#E86431" d="M349.918 300.762L350.748 300.483C351.153 301.395 351.42 301.973 352.068 302.733C349.742 304.408 347.545 305.233 344.931 306.388C346.762 304.414 348.061 303.282 350.066 301.555L349.918 300.762Z"/><path fill="#E57E43" d="M328.361 393.704L329.301 393.024L329.677 393.459C326.653 399.797 323.055 404.385 320.222 411.321L320.985 411.93C319.869 414.289 319.009 416.014 318.214 418.53L317.019 418.711L316.281 419.557C316.18 413.571 320.576 400.737 324.713 395.983C324.831 393.646 326.608 393.385 328.361 393.704Z"/><path fill="#FBE7DC" d="M324.713 395.983C324.831 393.646 326.608 393.385 328.361 393.704C325.756 398.315 324.591 400.912 320.922 404.682C321.984 402.511 324.329 398.068 324.713 395.983Z"/><path fill="#FBE7DC" d="M320.222 411.321L320.985 411.93C319.869 414.289 319.009 416.014 318.214 418.53L317.019 418.711C317.93 415.711 318.797 414.035 320.222 411.321Z"/><path fill="#9E4621" d="M429.595 217.832C432.371 218.281 436.072 218.641 438.5 219.833C438.505 221.236 438.272 221.317 437.658 222.67C437.972 224.438 438.643 224.56 440.177 226.153C430.957 223.687 429.621 223.245 420.076 224.117C422.877 222.942 426.37 221.58 429.011 220.235L429.595 217.832Z"/><path fill="#9E4621" d="M358.282 466.805C358.301 460.819 357.644 454.396 360.455 449.207C361.587 449.957 362.917 452.019 362.941 453.112C363.124 461.384 360.783 460.915 362.816 469.556L362.45 469.552L360.597 466.417L358.282 466.805Z"/><path fill="#F9A73E" d="M602.37 451.891C605.293 454.82 603.784 458.082 605.471 460.813C607.794 460.267 607.82 457.26 608.679 455.419C609.429 459.253 610.479 463.834 610.138 467.729L608.872 467.479C607.808 463.573 607.582 462.364 605.603 458.777C605.908 461.153 606.329 465.268 606.86 467.43C607.175 469.382 607.564 471.183 607.493 473.157C605.604 472.488 605.668 472.575 603.64 472.932L603.928 472.265C603.935 464.73 603.43 459.26 602.37 451.891Z"/><path fill="#FD991A" d="M603.928 472.265C604.965 470.842 604.575 470.757 604.56 468.533C605.656 467.268 604.964 467.712 606.86 467.43C607.175 469.382 607.564 471.183 607.493 473.157C605.604 472.488 605.668 472.575 603.64 472.932L603.928 472.265Z"/><path fill="#9E4621" d="M650.713 431.353C652.039 431.845 655.606 433.163 656.763 433.901C658.657 438.706 659.879 443.195 660.902 448.236C658.798 443.24 656.9 438.814 654.505 433.931C655.285 441.256 656.576 449.3 655.589 456.536C653.478 448.444 653.307 440.547 650.713 431.353Z"/><path fill="#9E4621" d="M582.972 381.358C584.921 382.523 587.628 387.118 588.778 389.16C587.74 389.86 588.128 389.732 586.966 390.04L586.775 391.015L585.943 391.229C582.623 389.986 579.707 386.627 577.241 384.064C578.502 383.584 578.949 383.295 580.117 382.655L580.634 382.016C581.921 381.95 581.922 382.054 582.972 381.358Z"/><path fill="#B8481A" d="M580.117 382.655C581.854 384.585 585.17 388.462 586.966 390.04L586.775 391.015L585.943 391.229C582.623 389.986 579.707 386.627 577.241 384.064C578.502 383.584 578.949 383.295 580.117 382.655Z"/><path fill="#FBF5E7" d="M580.117 382.655L580.634 382.016C583.297 384.456 586.012 386.838 588.778 389.16C587.74 389.86 588.128 389.732 586.966 390.04C585.17 388.462 581.854 384.585 580.117 382.655Z"/><path fill="#F9A73E" d="M422.359 263.574L422.583 262.889C416.799 261.253 404.8 259.299 398.995 260.405L398.642 259.949L399.381 258.889C405.7 256.459 421.971 260.338 428.626 263.018C425.933 263.506 424.505 264.341 422.359 263.574Z"/><path fill="#FCB749" d="M404.036 500.244C405.727 501.519 408.482 517.009 409.973 519.983C409.394 518.829 409.284 523.175 409.282 523.062C409.516 523.42 409.439 523.206 409.438 523.725C403.77 513.99 403.716 511.096 404.036 500.244Z"/><path fill="#FD991A" d="M603.64 472.932C605.668 472.575 605.604 472.488 607.493 473.157C607.975 477.537 608.105 479.704 607.587 484.142C605.809 485.441 606.443 485.377 604.588 485.402C603.472 484.557 603.313 483.617 602.826 482.28C603.341 479.14 603.456 476.104 603.64 472.932Z"/><path fill="#F9A73E" d="M688.644 333.669C693.097 338.525 696.197 343.787 699.701 349.333L699.14 349.867C696.502 349.184 693.43 343.037 690.914 340.251L689.048 341.046C687.752 339.023 686.796 337.668 685.849 335.435L686.191 335.37L688.644 333.669Z"/><path fill="#FBF5E7" d="M686.191 335.37C688.365 336.822 689.28 338.225 690.914 340.251L689.048 341.046C687.752 339.023 686.796 337.668 685.849 335.435L686.191 335.37Z"/><path fill="#E57E43" d="M349.757 415.967C349.565 416.127 349.376 416.292 349.191 416.46C341.776 423.221 334.863 439.519 334.572 449.709L334.559 450.347L334.089 450.62C330.3 444.625 343.281 421.388 346.61 415.32L349.757 415.967Z"/><path fill="#F48E38" d="M602.826 482.28C603.313 483.617 603.472 484.557 604.588 485.402C606.443 485.377 605.809 485.441 607.587 484.142C607.64 486.165 607.953 488.727 606.677 490.223C605.39 489.334 604.948 487.253 604.401 485.655C603.394 490.424 601.628 501.232 599.202 505.026C599.025 501.932 602.221 486.873 602.826 482.28Z"/><path fill="#F48E38" d="M492.093 585.965C495.042 586.025 502.263 589.164 504.724 591.177C507.735 593.639 508.044 593.621 508.576 597.368C507.218 597.304 494.204 587.484 492.093 585.965Z"/><path fill="#D06A2C" d="M647.607 268.651C649.797 268.275 669.089 270.126 670.726 271.086C669.927 271.749 667.122 271.001 664.936 271.039L665.033 271.49C668.131 272.8 668.918 273.168 671.77 275.084C667.126 273.802 650.619 270.275 647.607 268.651Z"/><path fill="#D06A2C" d="M609.431 401.112C615.127 407.074 619.31 410.719 619.745 419.702L619.306 420.141C618.54 418.942 618.452 418.498 618.184 417.104C617.087 411.412 612.238 406.845 608.307 402.598L609.431 401.112Z"/><path fill="#B8481A" d="M470.579 436.856L471.064 436.843C471.629 438.532 471.004 440.352 471.554 442.435C472.191 444.845 474.284 445.927 473.991 447.732C471.92 447.181 471.352 447.625 470.025 446.983C468.621 444.927 468.103 441.889 467.469 439.387L470.579 436.856Z"/><path fill="#E57E43" d="M609.976 288.967C615.617 287.98 626.138 288.47 631.96 289.098C632.005 289.567 632.122 290.076 632.004 290.469C628.774 290.559 621.163 290.658 618.408 291.5C618.004 290.777 617.725 290.32 617.259 289.636C615.226 288.765 612.364 289.154 609.976 288.967Z"/><path fill="#FD991A" d="M446.967 259.44C452.1 261.404 457.636 264.783 462.427 267.593C461.612 268.12 459.951 269.581 459.368 269.82C458.636 268.807 449.448 261.878 446.967 259.44Z"/><path fill="#E86431" d="M369.711 413.871C370.786 415.995 370.2 415.656 371.921 416.288C369.388 417.905 366.805 425.673 364.581 429.043L364.26 428.759C364.622 423.247 366.844 418.593 369.711 413.871Z"/><path fill="#FD991A" d="M711.699 347.52C713.637 347.529 712.834 347.229 714.279 348.16C715.957 351.173 717.234 356.519 716.517 359.761L715.837 359.12L713.485 360.403C712.656 359.569 715.303 353.293 712.839 350.549C712.453 350.119 711.886 348.28 711.699 347.52Z"/><path fill="#B8481A" d="M622.129 233.304C624.256 233.447 628.732 235.569 629.97 237.263L629.45 238.03C626.377 238.047 622.905 238.567 620.795 236.522C620.684 234.607 620.674 235.257 622.129 233.304Z"/><path fill="#E86431" d="M320.985 411.93L322.149 410.511L322.62 410.926C321.98 414.245 317.832 424.594 316.206 427.663L315.894 427.575C316.548 423.589 317.062 422.373 318.214 418.53C319.009 416.014 319.869 414.289 320.985 411.93Z"/><path fill="#BE6B50" d="M621.197 250.196C623.75 250.19 623.88 250.156 626.203 251.084L625.18 251.023C627.904 251.843 630.619 252.128 632.267 253.942C628.328 253.356 625.881 253.591 621.979 253.898C620.778 252.37 620.166 252.352 619.866 250.72L621.197 250.196Z"/><path fill="#F9A73E" d="M435.102 432.505L435.786 434.041C436.476 434.281 437.034 434.506 437.745 434.669C437.06 437.28 435.77 442.276 434.45 444.518C433.161 441.918 434.585 435.328 435.102 432.505Z"/><path fill="#E86431" d="M435.12 247.982C440.678 248.005 443.644 248.715 448.51 251.109L448.112 253.501C443.424 251.677 439.671 250.201 435.12 247.982Z"/><path fill="#E86431" d="M357.465 407.421C361.265 403.17 366.038 397.224 370.805 394.398L371.507 393.974C371.65 393.892 371.792 393.811 371.935 393.73C367.789 397.998 362.254 404.079 358.664 408.811C358.317 407.922 358.312 408.148 357.465 407.421Z"/><path fill="#B8481A" d="M610.689 422.668C616.039 424.502 615.443 426.242 615.593 431.283C612.49 428.43 610.265 427.068 610.689 422.668Z"/><path fill="#F48E38" d="M657.884 343.086C661.586 346.71 664.828 349.704 667.594 354.116C664.777 351.987 658.261 345.862 655.818 345.29C655.769 343.571 655.775 345.685 657.884 343.086Z"/><path fill="#E86431" d="M466.329 228.935C461.192 224.542 455.818 224.549 452.808 222.047C456.61 222.146 464.874 225.695 468.484 227.255C467.345 227.946 466.989 227.952 466.329 228.935Z"/><path fill="#E57E43" d="M623.971 271.48C628.42 270.457 639.942 271.014 644.914 271.153L644.984 271.792C642.425 272.255 640.302 272.027 637.711 271.912C635.021 272.106 632.281 272.357 629.59 272.364L629.777 272.088L629.508 271.553C627.662 271.544 625.817 271.52 623.971 271.48Z"/><path fill="#DBB59D" d="M644.914 271.153L644.984 271.792C642.425 272.255 640.302 272.027 637.711 271.912C639.561 271.356 642.872 271.281 644.914 271.153Z"/><path fill="#D06A2C" d="M617.36 400.368C620.25 402.905 623.403 413.695 624.08 417.632C621.338 413.44 618.861 405.224 617.36 400.368Z"/><path fill="#E8A578" d="M337.811 424.754L339.141 424.76C336.309 430.844 335.418 435.342 332.977 441.007L332.615 441.01C332.787 437.135 336.248 428.595 337.811 424.754Z"/><path fill="#9E4621" d="M358.282 466.805L360.597 466.417C360.447 468.445 363.238 475.79 364.068 478.209C360.519 473.428 359.664 472.54 358.282 466.805Z"/><path fill="#D06A2C" d="M455.392 426.8C455.481 428.47 454.727 435.768 453.835 436.924C453.524 433.416 453.803 425.248 454.487 421.782L454.794 426.503L455.392 426.8Z"/><path fill="#F9A73E" d="M694.425 349.849C696.229 352.884 696.18 353.803 696.83 357.246C694.053 355.928 693.873 353.208 692.196 351.018C693.037 350.767 693.642 350.313 694.425 349.849Z"/><path fill="#FCB749" d="M602.258 547.464L602.682 547.789C601.804 553.086 600.543 553.727 596.803 557.575L596.459 557.341C596.601 555.779 601.095 549.283 602.258 547.464Z"/><path fill="#F48E38" d="M456.022 271.36C452.728 268.856 451.351 267.755 448.609 264.707C451.829 266.121 454.891 267.461 457.586 269.775C456.918 270.4 456.608 270.659 456.022 271.36Z"/><path fill="#F48E38" d="M335.156 418.917L336.525 419.336C335.367 422.222 334.161 425.088 332.909 427.934L331.943 427.445C332.547 424.563 333.854 421.545 335.156 418.917Z"/><path fill="#BE6B50" d="M418.751 218.468C422.997 217.798 425.326 217.411 429.595 217.832L429.011 220.235C425.294 219.335 422.558 218.971 418.751 218.468Z"/><path fill="#B8917B" d="M646.592 402.674C647.539 406.601 650.026 412.274 652.097 415.758L651.808 415.968C649.734 414.189 646.433 406.177 645.599 403.45L646.592 402.674Z"/><path fill="#E57E43" d="M556.239 254.053C558.895 252.014 560.296 250.738 563.444 249.58L563.587 249.845C561.351 251.648 557.75 254.11 556.438 256.342L556.239 254.053Z"/><path fill="#E8A578" d="M382.116 304.186C378.618 304.801 375.071 305.09 371.519 305.052C372.549 304.385 379.085 303.4 380.614 303.178L382.116 304.186Z"/><path fill="#E57E43" d="M379.783 308.915L382.128 308.673C381.843 309.395 381.325 310.589 381.123 311.288C377.771 310.153 375.315 311.168 371.841 311.978C374.834 310.667 376.644 309.898 379.783 308.915Z"/><path fill="#E57E43" d="M406.246 340.94C408.514 339.248 410.523 338.159 412.531 336.109L414.079 338.96L406.246 340.94Z"/><path fill="#F48E38" d="M598.479 455.547L600.023 454.874C600.097 457.837 600.267 459.927 599.876 462.835C599.148 461.215 598.77 457.487 598.479 455.547Z"/><path fill="#E57E43" d="M397.181 389.561L398.03 391.125C396.28 393.573 394.606 396.244 392.224 398.049C393.673 394.983 395.542 392.566 397.181 389.561Z"/><path fill="#F48E38" d="M423.313 448.436L425.151 449.467L423.198 456.68C423.077 453.576 423.149 451.515 423.313 448.436Z"/><path fill="#E8A578" d="M631.96 289.098C634.026 289.214 635.69 289.132 637.575 289.952C636.248 290.778 633.72 290.523 632.004 290.469C632.122 290.076 632.005 289.567 631.96 289.098Z"/><path fill="#E86431" d="M451.509 229.018C448.717 228.274 446.733 227.89 444.176 226.501C447.393 226.799 449.265 227.194 452.409 227.865L451.509 229.018Z"/><path fill="#DBB59D" d="M523.818 287.174C523.852 285.407 523.738 284.937 523.255 283.222L523.621 282.371C524.966 284.781 525.171 286.422 525.05 289.109L523.818 287.174Z"/><path fill="#DBB59D" d="M610.138 467.729C610.355 469.194 610.838 471.206 610.382 472.505C609.373 471.195 609.193 469.179 608.872 467.479L610.138 467.729Z"/><path fill="#9E4621" d="M671.27 437.079C670.889 435.353 670.483 435.066 671.08 433.818C672.499 434.843 672.33 435.263 673.193 437.114L671.27 437.079Z"/><path fill="#E8A578" d="M331.943 427.445L332.909 427.934C332.523 429.294 332.366 430.539 331.371 431.466C330.868 430.159 331.508 428.883 331.943 427.445Z"/></svg>