<?xml version="1.0" encoding="utf-8" ?><svg xmlns="http://www.w3.org/2000/svg" xmlns:xlink="http://www.w3.org/1999/xlink" width="1024" height="1024" viewBox="0 0 1024 1024"><defs><linearGradient id="gradient_0" gradientUnits="userSpaceOnUse" x1="452.57794" y1="309.85004" x2="367.32135" y2="467.34735"><stop offset="0" stop-color="#FCA41E"/><stop offset="1" stop-color="#FA7132"/></linearGradient></defs><path fill="url(#gradient_0)" d="M397.05 300.043C402.76 301.37 407.609 302.964 413.12 304.986C411.167 302.358 391.066 295.037 386.858 292.779C384.592 291.563 378.404 290.622 377.099 289.512C378.072 288.716 379.028 288.851 380.466 289.046C409.821 293.021 430.174 310.292 454.479 324.837C447.855 318.123 438.436 311.695 431.944 305.347C437.298 307.49 441.711 309.264 446.893 311.841C440.802 306.243 436.175 302.894 429.363 298.15C450.026 305.025 459.933 315.217 476.06 329.015C478.514 331.115 484.516 336.954 486.809 338.541L488.354 340.401C494.71 348.083 500.096 358.184 503.936 367.291C499.799 363.84 495.65 360.988 491.255 357.889C497.72 367.221 508.226 378.055 515.802 386.627C519.071 390.325 523.329 394.659 526.149 398.632C528.036 401.368 529.621 403.647 531.228 406.594C533.64 411.021 533.727 415.585 536.841 419.32C538.753 420.238 540.42 421.714 542.104 423.04C536.294 424.359 538.247 424.179 535.394 429.089C533.739 429.391 534.238 429.275 532.36 428.237C528.38 425.69 527.198 426.846 523.074 424.43C520.716 418.766 492.476 401.749 485.829 399.161C483.484 398.248 477.592 397.421 474.47 396.254C471.03 394.518 463.55 389.88 459.959 387.742C445.536 379.151 434.924 379.959 418.672 380.208C436.971 385.148 446.877 389.335 464.254 395.552C458.339 398.736 408.16 409.783 402.86 409.406C398.094 408.7 377.257 414.124 371.091 415.417C373.114 413.514 376.608 411.085 374.706 408.272C371.716 406.711 363.041 407.675 358.547 407.527C361.032 406.664 364.477 405.938 366.864 404.958C375.24 401.516 382.635 398.767 391.311 396.099C394.329 395.386 399.219 394.391 401.901 393.238L389.512 394.27C384.23 394.647 378.815 395.144 373.532 395.045C377.637 393.234 380.764 392.165 385.046 390.746C379.149 390.178 371.937 389.08 366.077 390.203C363.517 390.694 360.302 394.175 357.929 395.382C348.675 399.571 337.681 401.817 327.717 401.409C330.25 399.877 333.389 397.842 336.022 396.699C341.22 394.665 345.668 393.327 350.999 391.718C346.512 392.063 341.22 393.252 336.842 394.226C326.101 396.048 315.551 398.858 305.326 402.619C313.589 396.041 324.557 392.41 334.502 389.145C303.017 392.22 289.734 399.032 263.195 415.063C268.713 408.248 274.073 401.566 281.372 396.573C285.202 394.254 288.134 392.493 291.719 389.758C287.408 391.493 284.829 392.573 280.79 394.797C273.704 398.338 267.533 402.087 260.043 405.149C268.141 394.872 292.558 384.324 304.996 380.841C315.318 377.95 326.107 375.833 336.817 372.654C333.032 372.397 327.708 372.996 324.725 372.378L324.734 371.894C330.677 368.837 349.587 367.843 357.307 366.782C346.196 365.333 338.073 367.069 327.05 366.946C331.416 365.056 337.235 363.793 342.05 361.975C339.276 362.254 328.558 363.817 326.716 362.84C326.861 362.712 326.995 362.569 327.152 362.456C334.179 357.352 378.815 357.01 389.861 356.173C396.805 355.646 403.69 354.021 410.65 353.823C416.636 353.653 422.687 354.436 428.631 355.088C420.989 351.623 412.85 349.38 404.511 348.442C394.297 347.223 362.277 348.796 356.704 345.277C355.631 344.6 354.849 343.726 354.739 342.403C354.581 340.501 355.681 338.615 356.93 337.275C362.741 331.043 382.231 332.074 390.495 331.951C383.331 327.908 372.059 325.994 363.812 324.566C366.432 323.8 372.892 324.126 375.928 324.189C364.618 320.564 356.184 319.77 344.387 320.335C340.207 320.535 322.75 322.984 321.132 319.52C323.134 315.541 336.842 313.42 341.469 312.418C333.053 312.666 325.69 312.365 317.33 311.819C336.92 305.71 348.582 304.663 368.693 305.585C370.914 305.949 373.408 306.116 375.68 306.361C385.978 307.47 395.796 309.963 405.83 312.479C400.956 309.747 388.07 305.548 385.156 301.708L385.492 300.568L386.347 300.531L386.076 298.989C386.945 298.803 393.54 300.368 397.05 300.043ZM462.194 376.341C449.566 370.588 431.956 363.763 418.366 361.163C421.53 362.641 428.964 365.632 431.252 367.21L431.304 367.937C429.065 369.193 421.367 367.28 418.645 366.648C409.679 364.567 402.737 363.717 393.553 363.95C413.072 369.162 432.71 373.918 452.451 378.215C466.287 383.476 474.787 389.328 487.242 396.933C476.43 386.454 466.241 382.567 453.05 376.152L452.693 375.322C454.459 374.24 459.953 375.845 462.194 376.341ZM382.125 337.897C388.699 337.932 393.989 338.547 400.301 338.729C391.528 335.768 378.947 334.274 369.853 335.695C365.659 336.159 360.459 336.243 357.14 338.639C356.228 340.126 356.373 340.266 356.393 341.986L356.994 342.798C359.634 342.156 359.811 339.71 363.715 339.156C369.85 338.285 375.939 337.963 382.125 337.897Z"/><path fill="#D76F30" d="M513.908 403.199C523.884 408.242 524.467 417.589 536.841 419.32C538.753 420.238 540.42 421.714 542.104 423.04C536.294 424.359 538.247 424.179 535.394 429.089C533.739 429.391 534.238 429.275 532.36 428.237C532.29 426.924 532.308 425.823 532.331 424.518C530.553 422.573 529.249 422.757 527.377 421.643C521.855 418.357 515.953 409.076 513.908 403.199Z"/><path fill="#FCF9F8" fill-opacity="0.011764706" d="M453.05 376.152C466.241 382.567 476.43 386.454 487.242 396.933C474.787 389.328 466.287 383.476 452.451 378.215C452.638 377.524 452.838 376.836 453.05 376.152Z"/><path fill="#953C1E" d="M569.267 368.021C569.587 368.924 569.866 370.36 570.548 370.752C574.615 373.091 582.859 366.134 585.422 370.413C584.077 373.503 585.752 374.311 584.783 376.78C580.251 379.029 573.287 381.984 570.939 386.438C571.442 390.896 589.679 387.735 592.897 387.297C591.193 388.307 586.199 391.139 584.902 392.262C582.634 393.253 580.874 394.124 578.694 395.254C593.178 392.241 610.032 387.458 624.338 393.372C611.244 395.2 605.614 399.052 595.206 401.074L596.011 402.064C602.305 400.696 609.124 400.886 615.157 403.244C602.872 404.085 592.594 405.554 581.091 410.202C584.768 411.915 599.379 419.091 602.959 417.501C608.93 421.822 625.368 422.598 633.266 426.576C662.999 441.554 692.664 462.601 711.046 490.857C714.196 495.867 720.92 518.866 722.672 524.898C718.576 518.585 715.778 510.8 712.81 503.865C708.211 493.123 699.76 478.967 690.549 471.684C686.779 467.671 679.306 462.091 674.785 458.649C677.062 461.456 681.239 466.202 683.587 468.847C685.261 470.733 693.17 481.466 694.162 482.206L694.46 482.704C696.659 486.311 700.741 491.023 702.416 493.984C714.057 514.562 733.027 548.765 737.347 571.245C733.985 564.812 731.602 558.205 728.338 551.715C730.236 562.212 731.066 577.525 729.81 588.184C725.803 562.608 724.504 542.8 710.902 520.272C716.216 535.124 722.299 551.78 723.357 567.625L722.981 566.873C719.477 559.775 716.88 551.662 713.805 544.475C707.615 530.004 694.793 506.601 682.996 496.333C692.077 514.911 705.487 538.059 705.69 559.324C705.71 561.399 705.638 565.181 704.31 566.766L703.452 566.681C701.118 563.749 693.096 536.605 690.702 530.752C684.051 514.491 676.72 502.281 665.36 488.89C666.515 491.756 669.205 497.89 669.506 500.789L669.098 501.24C666.584 499.635 665.089 497.286 663.652 494.734C656.64 482.278 650.242 469.439 639.381 459.756C644.898 468.139 650.65 478.61 655.727 487.424C651.205 483.152 648.101 479.273 643.972 475.188C650.558 487.417 656.12 492.905 662.415 503.335C660.956 504.688 660.457 505.097 658.834 506.246C655.729 504.53 650.4 497.362 647.929 494.283C646.843 494.836 647.919 495.193 646.73 497.35C644.104 496.28 636.339 483.248 632.89 479.994C628.324 475.686 628.13 475.003 622.157 471.778C624.231 474.972 632.445 482.704 636.264 487.827C629.25 483.476 626.273 481.082 620.362 475.373C621.111 477.032 627.793 486.207 629.597 489.24C618.774 484.532 613.968 475.53 606.116 467.009L606.254 463.765L606.215 463.339C601.998 459.499 579.496 448.351 574.5 449.364L575.221 450.541L574.198 451.736C561.028 445.851 548.39 442.058 534.967 436.847C535.477 442.502 534.362 449.171 532.572 454.535C529.799 463.586 526.229 478.638 526.172 488.235C526.163 489.735 527.461 493.009 528.049 494.535C526.279 497.746 524.9 500.143 523.665 503.595C521.103 510.753 521.414 518.87 516.291 524.673L514.064 525.315C505.843 521.708 511.426 509.854 513.363 503.142C510.464 499.48 508.108 497.205 508.7 492.17C509.23 487.664 516.87 477.052 515.061 472.673C512.232 472.622 512.014 473.408 510.335 472.224C509.113 467.672 514.217 459.609 515.374 454.783C516.064 451.91 516.399 449.712 516.829 446.785C510.23 459.489 504.365 471.884 494.076 481.839C492.313 483.545 491.05 494.186 487.023 498.083L486.25 498.204C484.597 496.905 484.362 496.092 483.341 494.175C473.812 510.011 469.752 527.199 468.21 545.446C468.064 547.175 467.715 554.247 466.545 555.144C464.618 553.719 464.602 547.712 464.363 545.211L463.78 545.152L462.666 547.674L461.913 547.684C460.715 544.899 460.656 537.707 460.5 534.468L460.245 523.691C459.545 525.919 458.757 531.92 458.356 534.519C458.089 536.789 458.181 539.775 456.816 541.274C456.391 541.392 455.965 541.505 455.546 541.639C449.343 543.61 453.356 567.689 449.883 574.075L449.098 574.161C446.643 570.94 447.065 553.943 446.904 548.646C445.54 554.574 445.943 559.642 444.771 565.35L444.42 565.113C442.768 548.886 446.339 537.314 445.951 521.39C442.991 530.018 440.603 544.41 438.141 553.906C437.773 542.719 439.613 530.476 442.169 519.523C443.745 512.767 449.661 502.908 449.097 495.495C450.29 491.13 453.836 480.639 458.933 480.124L459.715 481.617L460.415 481.793C466.888 477.932 470.248 473.556 474.931 467.649L476.19 468.261C479.38 468.003 481.43 465.35 483.748 463.089L484.073 463.709C484.546 464.263 484.221 464.004 485.174 464.299C491.145 461.476 501.897 452.11 508.441 448.325C517.805 442.91 520.497 445.152 528.749 437.745C527.178 437.266 526.326 437.095 524.911 436.212L524.894 435.348L526.903 433.268L526.843 432.104C524.688 430.15 521.401 431.984 517.805 430.084C516.613 428.465 516.931 429.333 516.699 427.427C517.792 424.681 520.418 424.019 523.074 424.43C527.198 426.846 528.38 425.69 532.36 428.237C534.238 429.275 533.739 429.391 535.394 429.089C538.247 424.179 536.294 424.359 542.104 423.04C540.42 421.714 538.753 420.238 536.841 419.32C533.727 415.585 533.64 411.021 531.228 406.594C529.621 403.647 528.036 401.368 526.149 398.632C530.453 400.216 541.594 415.811 545.235 420.202C549.981 412.426 553.845 397.069 558.011 388.311C561.316 381.362 565.649 374.9 569.267 368.021Z"/><path fill="#D76F30" d="M585.921 404.057C589.587 402.619 591.388 401.887 595.206 401.074L596.011 402.064C593.566 402.735 588.588 403.539 585.921 404.057Z"/><path fill="#F75C2B" d="M436.101 241.615C458.322 242.905 489.033 264.914 505.061 280.849C508.953 284.717 508.431 288.983 510.326 291.751C514.196 297.403 519.051 302.221 523.015 308.15C529.569 317.955 535.169 331.704 542.06 340.838C544.4 334.378 545.676 331.306 550.232 326.072C546.219 335.968 544.558 340.627 544.26 351.501C545.946 346.561 547.584 341.606 549.174 336.634C550.822 329.14 553.577 321.719 558.633 315.86C570.905 302.882 579.777 293.319 595.007 283.495C591.034 287.691 586.647 291.187 582.873 295.305C591.954 289.569 603.161 281.576 611.973 276.326C623.924 269.207 650.276 259.299 664.091 257.985L663.431 258.367C656.097 262.563 647.371 264.716 640.145 268.582L640.155 268.921C647.68 267.848 650.235 265.259 658.717 265.391C647.159 270.325 637.379 273.466 627.368 281.627C625.095 283.479 621.353 285.754 623.055 288.511C623.741 290.281 618.982 294.297 617.386 295.744C634.012 287.043 651.999 281.24 670.575 278.584C665.525 282.22 656.825 285.906 654.333 287.949C655.246 288.353 655.428 288.367 656.154 289.05C652.887 292.582 626.883 302.465 620.912 307.881C614.121 314.041 617.598 313.922 612.061 321.058C610.806 322.675 606.903 325.232 604.997 326.492C609.831 324.713 612.728 323.679 617.702 322.539C612.191 326.561 600.498 332.386 596.562 336.14C587.945 339.864 571.153 358.86 569.267 368.021C565.649 374.9 561.316 381.362 558.011 388.311C553.845 397.069 549.981 412.426 545.235 420.202C541.594 415.811 530.453 400.216 526.149 398.632C523.329 394.659 519.071 390.325 515.802 386.627C508.226 378.055 497.72 367.221 491.255 357.889C495.65 360.988 499.799 363.84 503.936 367.291C500.096 358.184 494.71 348.083 488.354 340.401L486.809 338.541C484.042 332.392 467.892 318.301 462.587 313.705C471.221 316.636 478.876 320.74 487.711 323.73C471.15 313.574 455.023 302.825 438.605 292.498C429.575 286.818 416.979 283.487 407.924 277.988C412.16 278.839 429.685 283.675 431.336 283.621C431.903 281.548 431.975 280.47 433.663 279.431C439.069 279.153 450.974 290.604 456.901 293.476C464.482 297.149 470.675 298.769 478.721 301.282C462.891 289.548 438.901 280.471 423.621 266.966C421.247 264.868 406.132 264.028 404.246 258.413C405.232 257.085 405.363 257.448 407.453 256.914C412.675 257.311 417.034 258.736 422.011 260.258C418.262 257.783 416.694 257.146 412.609 255.686C409.236 253.996 406.87 252.795 403.703 250.771C417.788 252.049 429.139 255.573 442.661 255.621C437.546 252.97 430.436 250.239 426.047 247.719C431.718 248.673 452.211 255.16 456.05 252.019C455.901 247.13 440.182 243.985 436.101 241.615ZM553.325 332.239C554.843 330.022 561.679 318.602 561.713 316.729L560.951 316.877C557.362 320.866 554.379 327.014 553.325 332.239Z"/><path fill="#FCF9F8" fill-opacity="0.023529412" d="M560.951 316.877L561.713 316.729C561.679 318.602 554.843 330.022 553.325 332.239C554.379 327.014 557.362 320.866 560.951 316.877Z"/><path fill="#D76F30" d="M558.633 315.86L560.951 316.877C557.362 320.866 554.379 327.014 553.325 332.239C552.446 334.015 551.788 335.864 550.223 337.005L549.174 336.634C550.822 329.14 553.577 321.719 558.633 315.86Z"/><path fill="#F75C2B" d="M464.254 395.552C467.397 395.658 471.785 396.246 474.47 396.254C477.592 397.421 483.484 398.248 485.829 399.161C492.476 401.749 520.716 418.766 523.074 424.43C520.418 424.019 517.792 424.681 516.699 427.427C516.931 429.333 516.613 428.465 517.805 430.084C521.401 431.984 524.688 430.15 526.843 432.104L526.903 433.268C520.407 434.262 512.84 434.874 506.288 435.519C500.628 436.077 494.179 434.922 488.457 436.025C462.482 439.743 437.174 449.75 415.528 464.555C413.132 466.194 408.47 470.039 406.853 472.353C402.631 475.253 400.435 476.081 395.55 477.675C400.586 471.681 404.186 468.279 409.792 463.081C397.973 469.617 389.331 474.604 378.855 483.513C370.217 490.859 361.392 500.362 352.645 507.1C361.255 487.722 383.236 466 399.948 452.866L399.675 452.587C381.739 461.416 365.022 482.007 351.537 496.403C353.18 492.954 355.102 490 356.682 486.6C347.866 495.292 341.42 501.99 334.499 512.453C328.499 521.524 322.058 534.779 314.932 542.5C316.711 535.797 318.376 530.308 321.125 523.844C319.135 526.722 317.232 529.658 315.419 532.65C312.69 538.407 310.025 544.195 307.423 550.011C308.499 542.289 309.771 538.842 312.38 531.567C314.848 526.007 316.433 521.772 318.115 515.952C316.108 518.867 313.448 523.029 311.037 525.432L310.676 525.217C311.908 521.207 318.141 509.27 320.443 505.337L326.561 495.752C323.603 498.668 320.673 501.612 317.769 504.582C314.716 507.601 312.758 509.817 308.845 511.683C310.525 507.405 311.615 505.071 313.801 501.028C310.111 504.312 307.056 507.132 303.547 510.662L302.099 509.931C309.05 502.018 320.802 491.437 328.822 483.429C330.855 481.485 333.752 479.23 336.036 477.111C333.343 478.604 330.638 480.075 327.92 481.523C325.827 482.673 323.258 484.414 321.198 485.725C323.66 482.361 326.246 479.161 328.846 475.907L340.825 464.936L340.018 465.394C335.916 467.682 332.183 470.729 328.426 473.581C307.967 488.672 285.138 511.024 274.217 534.106C273.638 534.046 274.024 534.117 273.115 533.694L272.775 531.429C273.498 529.462 274.198 527.486 274.875 525.502C276.38 521.948 278.745 517.966 280.653 514.543C277.897 516.86 274.497 522.302 272.355 525.5C267.99 532.146 264.771 541.102 260.795 546.273C263.534 530.455 270.275 523.197 278.259 510.095C298.48 476.914 323.726 449.39 357.364 429.521C372.168 420.777 386.952 416.722 402.114 409.753L402.86 409.406C408.16 409.783 458.339 398.736 464.254 395.552ZM374.891 427.418L375.459 427.205C385.065 423.71 404.891 420.731 412.306 412.637L412.269 412.18C403.363 414.269 381.784 420.862 374.834 426.817L374.891 427.418Z"/><path fill="#FB9A21" d="M632.367 363.945C656.297 362.426 680.67 356.326 704.782 357.866C715.934 358.579 727.421 366.326 736.75 371.913C751.436 380.71 790.34 412.106 793.184 427.958C791.495 427.786 788.174 423.759 786.992 422.313C786.024 421.121 785.077 419.912 784.151 418.687C780.995 414.012 777.423 409.631 773.479 405.598C775.894 410.332 778.839 416.141 781.917 420.432C786.495 427.494 787.941 432.088 790.079 440.224C782.077 432.479 765 413.315 755.993 407.98C760.447 412.672 766.498 420.151 770.437 425.316C764.737 421.46 753.131 410.227 747.682 405.153C749.651 407.981 754.479 414.179 753.095 417.614C751.607 417.819 746.52 413.41 745.262 412.263C733.914 401.913 726.371 399.13 712.181 394.242C717.502 397.722 720.998 401.546 726.768 405.113C722.195 403.867 711.086 398.296 705.702 396.061C718.212 405.253 737.974 421.294 746.199 434.241C740.235 429.776 734.521 424.747 728.504 420.209C733.467 426.429 740.664 435.508 743.228 443.068C733.173 434.467 711.795 406.598 697.886 405.65C697.882 406.914 697.869 407.137 697.639 408.378L696.587 408.754C690.464 407.985 678.587 401.078 672.955 397.968C681.837 406.423 690.886 412.838 699.242 422.369C679.849 412.772 669.763 403.212 647.755 405.955C643.619 406.042 639.492 406.362 635.392 406.915C638.38 407.204 646.865 407.992 649.942 407.878C655.183 408.321 662.457 408.476 667.302 409.184C654.998 413.538 636.879 417.601 623.72 418.207L633.267 421.528C619.267 421.153 615.736 419.777 602.959 417.501C599.379 419.091 584.768 411.915 581.091 410.202C592.594 405.554 602.872 404.085 615.157 403.244C609.124 400.886 602.305 400.696 596.011 402.064L595.206 401.074C605.614 399.052 611.244 395.2 624.338 393.372C610.032 387.458 593.178 392.241 578.694 395.254C580.874 394.124 582.634 393.253 584.902 392.262C589.461 391.617 592.752 388.015 596.681 386.226C599.918 384.752 604.766 384.5 608.397 384.15C603.544 382.803 598.825 382.057 593.853 381.351C597.671 378.805 605.468 373.636 609.674 372.121C618.029 369.111 624.076 367.628 632.367 363.945ZM723.549 367.741C720.495 361.719 699.789 360.673 693.629 361.25L693.438 361.865C701.726 363.697 715.351 366.835 723.549 367.741Z"/><path fill="#953C1E" d="M625.092 377.525C626.452 377.531 627.812 377.61 629.164 377.761C636.473 378.629 648.006 382.098 652.686 388.002L652.549 388.723L651.151 388.499C639.996 383.582 633.661 384.931 622.034 382.99L621.843 382.128C622.731 379.848 623.384 379.384 625.092 377.525Z"/><path fill="#FB9A21" d="M406.853 472.353C408.47 470.039 413.132 466.194 415.528 464.555C437.174 449.75 462.482 439.743 488.457 436.025C494.179 434.922 500.628 436.077 506.288 435.519C512.84 434.874 520.407 434.262 526.903 433.268L524.894 435.348L524.911 436.212C526.326 437.095 527.178 437.266 528.749 437.745C520.497 445.152 517.805 442.91 508.441 448.325C501.897 452.11 491.145 461.476 485.174 464.299C484.221 464.004 484.546 464.263 484.073 463.709L483.748 463.089C481.43 465.35 479.38 468.003 476.19 468.261L474.931 467.649C470.248 473.556 466.888 477.932 460.415 481.793L459.715 481.617L458.933 480.124C453.836 480.639 450.29 491.13 449.097 495.495C443.232 509.136 438.019 521.424 433.025 535.448C433.305 523.154 433.853 511.662 437.158 499.656C426.554 520.095 419.673 551.729 416.442 574.763C415.342 566.22 415.15 558.327 416.335 549.752C413.394 556.676 411.19 563.147 409.765 570.529L409.445 570.389C408.895 560.466 412.153 545.481 414.858 535.76C415.725 532.642 418.029 526.027 418.464 523.306C420.007 519.25 421.397 515.094 422.961 511.087C419.538 515.636 416.603 521.892 414.147 527.058C410.039 535.241 406.548 543.72 403.704 552.423C402.664 555.607 394.949 583.423 394.253 584.429C391.917 580.097 395.992 561.261 395.116 558.965C389.534 573.117 386.408 602.502 386.644 618.341C386.717 623.21 387.763 630.698 388.541 635.621C386.246 630.123 383.019 618.375 381.478 612.263C381.55 619.763 383.205 632.207 385.063 639.255C386.794 645.825 389.054 652.071 390.585 658.917C387.602 653.576 386.048 648.416 383.994 642.782C375.918 620.625 374.521 603.673 375.191 580.435C377.162 587.401 376.627 599.205 379.017 608.936C379.065 591.18 380.519 573.456 383.365 555.929C384.117 551.438 385.639 547.49 385.982 542.941C384.503 546.719 383.376 549.284 381.563 552.907C379.362 557.359 375.996 564.134 375.099 568.874C372.083 584.809 373.083 608.697 374.954 624.703L371.785 623.517C367.663 604.81 370.022 586.126 371.929 567.397C372.849 558.355 372.485 552.106 374.712 542.837C377.041 533.142 380.258 524.459 383.212 514.98C385.609 512.835 403.184 485.151 406.089 480.712L401.132 483.847L398.779 483.641C403.301 476.891 403.626 475.675 410.476 470.909L410.216 470.611L406.853 472.353Z"/><path fill="#D76F30" d="M474.931 467.649C476.393 465.284 478.039 462.329 479.885 460.33C481.846 460.415 483.175 460.078 484.308 461.181C484.132 461.838 483.999 462.464 483.748 463.089C481.43 465.35 479.38 468.003 476.19 468.261L474.931 467.649Z"/><path fill="#953C1E" d="M479.885 460.33C481.897 458.99 484.135 457.206 486.408 456.72L487.157 457.196C487.094 459.29 485.228 461.726 484.073 463.709L483.748 463.089C483.999 462.464 484.132 461.838 484.308 461.181C483.175 460.078 481.846 460.415 479.885 460.33Z"/><path fill="#F75C2B" d="M516.291 524.673C517.191 525.262 517.921 525.425 517.891 526.581C517.655 535.895 518.128 546.842 516.284 555.787C520.899 562.944 520.262 563.344 515.364 570.135C521.057 578.979 513.058 578.991 513.637 587.001C514.687 588.217 516.164 588.406 517.776 588.881C519.982 591.345 514.928 597.517 513.504 600.555C515.569 600.206 517.013 599.741 518.988 600.351C520.416 602.276 516.471 615.438 516.07 618.876C517.323 620.141 518.722 621.476 519.869 622.819C519.503 624.752 519.113 626.68 518.7 628.603C520.647 630.237 522.228 631.217 522.32 633.857C522.632 642.824 518.416 653.13 516.615 662.046C519.573 663.121 522.99 664.276 525.842 665.511C523.091 667.205 519.553 669.249 517.077 671.2C520.167 672.539 521.842 673.695 524.237 676.108C523.831 678.739 523.476 681.159 522.877 683.764L523.239 684.347C526.666 689.741 531.36 692.702 534.156 696.628C537.679 701.576 546.285 715.181 544.803 721.159C544.329 723.099 543.084 724.763 541.356 725.766C538.552 727.386 532.618 727.705 529.254 728.012C526.719 728.248 523.82 728.454 521.325 728.77C524.082 729.179 526.842 729.568 529.605 729.939C532.737 730.732 538.634 731.837 540.888 734.005C540.647 735.293 540.421 735.356 539.596 736.426C540.308 737.667 553.652 741.942 557.632 744.249L557.03 744.763C554.982 746.528 554.67 746.593 553.737 749.009C553.013 750.882 552.788 752.572 551.013 752.942C546.383 753.908 539.756 753.963 535.058 754.204L527.327 754.391L536.388 756.677C550.444 760.016 559.076 763.641 570.444 772.253C565.314 771.141 553.329 768.416 548.824 770.1L548.287 771.518C550.24 775.379 560.989 778.36 565.721 780.477C543.09 787.03 528.243 785.095 505.963 777.737C500.61 775.969 496.323 775.098 492.597 770.416C489.391 766.387 493.994 756.809 497.221 754.71C498.904 754.933 498.65 755.334 500.113 757.207L500.849 757.194C502.905 752.25 504.023 752.586 508.912 751.979C503.218 748.999 504.88 749.724 501.724 744.835C501.223 744.058 494.494 742.835 492.439 742.091C489.455 738.807 495.692 732.452 498.008 729.652C495.905 729.238 494.704 729.12 492.791 728.207L492.576 727.487C493.647 726.03 495.533 725.259 497.185 724.383C496.184 722.692 494.922 721.032 493.766 719.431C496.369 719.532 504.094 719.911 505.486 717.818C503.031 715.077 493.401 714.221 489.827 713.796C490.067 708.711 491.389 704.387 492.238 699.471C492.727 696.644 493.438 696.377 495.609 694.26L491.394 691.685C492.725 685.62 496.584 675.895 498.515 668.668C489.584 665.69 491.846 662.094 497.426 656.56C500.31 653.7 502.919 651.421 505.281 648.082L505.708 647.472C503.988 647.482 500.44 647.766 499.166 646.967C498.545 643.738 506.34 635.446 508.64 632.747C505.296 633.84 499.036 636.722 497.715 632.087C498.661 626.749 505.15 621.123 509.062 617.182C505.233 617.094 498.841 618.843 497.207 616.812C492.207 610.6 505.332 599.224 504.883 594.045C503.177 592.638 501.995 593.523 500.252 592.937C493.443 590.647 499.808 578.454 501.574 574.387C496.474 564.194 501.166 560.474 507.206 552.262C505.668 543.386 510.905 534.498 514.064 525.315L516.291 524.673Z"/><path fill="#FB9A21" d="M534.967 436.847C548.39 442.058 561.028 445.851 574.198 451.736L575.221 450.541C582.61 452.082 592.364 456.869 599.217 460.182C600.916 461.003 604.871 463.233 606.254 463.765L606.116 467.009L602.999 467.222C610.028 479.299 638.185 510.99 640.721 521.536L640.457 522.27C637.758 518.183 634.081 512.291 630.919 508.715C633.49 514.649 635.338 517.897 638.361 523.535C647.896 539.127 657.488 567.153 661.897 584.989C663.192 590.229 663.876 599.355 664.777 605.139C661.723 599.419 660.768 593.968 657.856 588.298C658.499 602.595 663.456 621.868 658.882 634.998L654.821 626.922C654.483 628.795 654.18 630.855 653.673 632.669C653.203 641.296 650.733 651.2 646.284 658.688C648.522 650.084 650.38 641.386 651.85 632.619C656.381 607.239 656.623 589.293 647.965 564.627C648.106 572.342 650.049 587.52 649.365 594.175C646.718 583.421 647.286 578.978 641.233 568.321C644.414 585.618 644.377 605.934 639.128 622.831C639.044 616.778 639.337 609.371 638.924 603.52C638.02 590.686 633.987 576.543 629.3 564.564C630.046 571.287 630.767 578.058 630.335 584.822C627.65 578.93 626.421 565.054 624.16 557.691C617.791 536.961 603.338 516.278 589.842 499.561C595.131 512.387 601.197 524.133 606.579 536.706C610.452 545.98 613.863 555.441 616.797 565.054C609.024 553.751 599.351 530.483 590.268 521.738C592.734 529.53 595.139 537.341 597.484 545.171C590.144 532.913 583.096 519.18 575.648 506.891C572.23 501.251 566.137 487.407 561.562 483.493C561.158 484.429 561.669 484.929 562.176 486.24L561.025 487.641C555.694 480.18 551.205 475.361 544.899 468.811C541.212 464.982 535.241 458.785 532.572 454.535C534.362 449.171 535.477 442.502 534.967 436.847Z"/><path fill="#B75426" d="M575.221 450.541C582.61 452.082 592.364 456.869 599.217 460.182C600.916 461.003 604.871 463.233 606.254 463.765L606.116 467.009L602.999 467.222C601.21 465.495 578.164 453.805 574.198 451.736L575.221 450.541Z"/><path fill="#D76F30" d="M613.87 331.022C622.392 329.5 630.966 325.475 639.289 322.995C658.708 317.21 678.946 313.58 699.244 313.421C701.302 313.405 709.778 313.512 711.248 314.601C709.358 315.851 701.446 315.798 698.907 315.863C691.854 316.043 685.999 316.041 679.078 317.726C690.2 318.962 698.009 316.584 709.284 319.444L702.966 322.309C708.196 323.245 714.448 323.814 719.312 324.964C703.32 326.637 686.02 325.96 670.994 331.048C676.305 331.003 681.746 330.886 687.043 331.065C681.756 332.512 675.473 333.022 670.002 333.958C655.645 336.414 638.674 338.405 624.93 343.284C647.045 341.324 681.907 335.815 702.452 341.426C693.708 341.697 680.655 341.772 672.447 343.222L673.233 343.338C686.283 345.184 692.46 341.319 703.333 350.148C685.5 348.634 664.765 348.031 647.216 352.828C651.632 352.983 658.572 352.904 662.679 353.371C651.512 355.969 637.045 356.288 627.344 360.878L632.367 363.945C624.076 367.628 618.029 369.111 609.674 372.121C605.468 373.636 597.671 378.805 593.853 381.351C598.825 382.057 603.544 382.803 608.397 384.15C604.766 384.5 599.918 384.752 596.681 386.226C592.752 388.015 589.461 391.617 584.902 392.262C586.199 391.139 591.193 388.307 592.897 387.297C589.679 387.735 571.442 390.896 570.939 386.438C573.287 381.984 580.251 379.029 584.783 376.78C585.752 374.311 584.077 373.503 585.422 370.413C582.859 366.134 574.615 373.091 570.548 370.752C569.866 370.36 569.587 368.924 569.267 368.021C571.153 358.86 587.945 339.864 596.562 336.14C599.284 335.822 609.102 329.505 612.263 328.039C622.178 323.442 636.168 317.427 646.937 316.573C635.069 321.347 625.403 325.422 613.87 331.022Z"/><path fill="#953C1E" d="M751.095 550.775C754.88 553.002 758.559 561.65 761.397 561.46L762.692 559.633L763.228 559.784C765.361 564.394 766.201 590.258 761.832 591.909L760.799 590.825C759.964 589.031 760.208 588.66 758.849 588.088C756.62 589.535 755.643 596.483 754.994 599.436C755.183 577.387 755.326 572.542 751.095 550.775Z"/><path fill="#FB9A21" d="M398.779 483.641L401.132 483.847C395.373 489.57 385.857 507.174 383.212 514.98C376.403 520.438 370.076 555.859 368.735 566.212C368.434 570.294 367.931 573.656 366.694 577.544C366.199 571.831 366.366 567.721 366.736 562.01C369.384 530.44 378.396 507.978 398.779 483.641Z"/><path fill="#F75C2B" d="M307.916 425.962L308.467 426.748C305.859 433.498 287.892 451.322 282.233 456.958C284.642 452.532 285.869 450.423 287.69 445.69C286.278 446.504 284.795 447.195 283.329 447.915C279.589 449.66 275.838 451.383 272.078 453.085C282.464 439.601 293.421 433.561 307.916 425.962Z"/><path fill="#B75426" d="M680.064 562.829C682.818 562.756 687.143 562.477 687.893 565.65C689.472 572.328 689.681 589.887 686.73 595.638C685.863 594.422 685.891 594.309 684.695 593.466C682.705 593.732 683.26 593.71 681.434 595.059L680.812 594.811C679.713 590.384 679.854 568.115 680.064 562.829Z"/><path fill="#D76F30" d="M302.099 509.931L303.547 510.662C298.055 517.834 294.082 523.492 289.924 531.745C287.587 536.383 285.79 541.548 283.54 545.967C284.084 538.656 286.044 530.397 288.504 523.474C283.055 529.262 278.1 537.945 274.407 544.988L273.364 543.474C275.791 536.283 287.334 517.097 292.918 511.844L299.09 512.71L302.099 509.931Z"/><path fill="#F75C2B" d="M348.613 403.113C350.962 402.907 353.551 402.828 355.612 404.047C358.376 409.288 335.717 418.626 331.523 420.667C329.333 421.809 326.507 423.963 324.428 425.437C334.692 412.642 328.052 407.421 348.613 403.113Z"/><path fill="#B75426" d="M427.48 586.034C428.824 587.58 423.93 613.963 422.034 616.002C420.947 615.027 421.418 615.593 421.188 613.571C421.184 612.005 421.42 610.411 420.446 609.357L418.593 609.877L417.964 609.311C416.502 605.285 416.996 594.998 417.782 590.695C422.219 588.833 423.591 588.876 427.48 586.034Z"/><path fill="#B75426" d="M303.069 573.807C309.948 582.592 304.343 592.307 304.891 603.331C305.195 609.444 305.743 608.846 306.883 614.239L306.058 614.219C304.163 611.599 302.673 608.71 301.636 605.647C298.813 597.216 299.346 581.365 303.069 573.807Z"/><path fill="#F75C2B" d="M273.853 365.428C280.401 356.43 285.198 355.134 295.958 352.374C298.25 351.786 304.793 352.211 307.113 353.048L307.675 353.752C306.341 356.969 287.461 362.385 283.145 363.773C283.659 361.94 287.766 359.108 289.444 357.775C286.818 358.841 284.285 360.167 281.744 361.432C279.098 362.731 276.467 364.063 273.853 365.428Z"/><path fill="#953C1E" d="M403.33 235.964C405.625 236.071 414.228 236.36 414.667 238.158C416.686 246.434 415.191 243.922 422.348 248.642C416.177 246.925 413.234 246.21 406.89 245.276C402.982 244.701 391.456 244.803 389.348 243.93C391.388 241.842 400.453 240.718 403.928 238.149L404.194 237.359L403.33 235.964Z"/><path fill="#FCF9F8" fill-opacity="0.0078431377" d="M368.693 305.585C372.625 304.207 378.211 305.152 381.555 303.658C382.67 302.319 382.423 303.07 382.322 301.331C379.903 299.359 362.51 298.354 358.926 298.349C357.731 298.348 357.197 297.578 356.731 296.781C357.567 295.165 356.99 295.899 358.958 294.873L360 295.943L359.427 296.776C361.405 297.527 365.19 297.187 367.535 297.298C373.523 297.58 379.925 298.183 385.492 300.568L385.156 301.708C388.07 305.548 400.956 309.747 405.83 312.479C395.796 309.963 385.978 307.47 375.68 306.361C373.408 306.116 370.914 305.949 368.693 305.585Z"/><path fill="#D76F30" d="M716.515 311.236C722.009 310.256 745.852 311.094 749.82 314.485L749.405 314.965C747.832 314.695 742.42 313.586 741.386 314.378L743.114 315.053C745.061 315.641 749.137 316.553 750.286 317.91L749.85 318.28C742.212 317.408 726.325 313.433 717.59 312.236C717.231 311.903 716.873 311.569 716.515 311.236Z"/><path fill="#D76F30" d="M246.078 510.36C247.154 509.813 256.789 493.594 258.822 490.819C256.838 497.037 251.879 504.544 248.986 510.674C245.662 517.715 242.534 524.795 239.208 531.833C239.701 524.838 241.457 516.425 244.24 509.974L246.078 510.36Z"/><path fill="#FB9A21" d="M366.563 650.347C369.154 653.901 373.04 676.873 373.838 682.746C366.683 678.795 365.734 657.562 366.563 650.347Z"/><path fill="#FCF9F8" fill-opacity="0.0078431377" d="M401.132 483.847L406.089 480.712C403.184 485.151 385.609 512.835 383.212 514.98C385.857 507.174 395.373 489.57 401.132 483.847Z"/><defs><linearGradient id="gradient_1" gradientUnits="userSpaceOnUse" x1="691.09033" y1="469.99564" x2="685.07727" y2="473.77124"><stop offset="0" stop-color="white" stop-opacity="0"/><stop offset="1" stop-color="#FDFAF8" stop-opacity="0.047058824"/></linearGradient></defs><path fill="url(#gradient_1)" d="M674.785 458.649C679.306 462.091 686.779 467.671 690.549 471.684C691.484 474.324 693.902 476.078 695.815 478.203L694.758 478.838C695.031 480.053 694.764 479.489 695.891 480.39L696.752 479.809C697.867 480.526 697.924 480.313 698.473 481.292L697.709 481.725L697.194 483.468L696.237 483.766C694.985 482.467 695.553 482.592 694.162 482.206C693.17 481.466 685.261 470.733 683.587 468.847C681.239 466.202 677.062 461.456 674.785 458.649Z"/><path fill="#FA8E2C" d="M493.795 776.368C502.279 778.454 513.315 785.187 517.359 793.154C512.088 791.63 497.274 780.653 493.795 776.368Z"/><defs><linearGradient id="gradient_2" gradientUnits="userSpaceOnUse" x1="373.51144" y1="299.06104" x2="373.49152" y2="295.47504"><stop offset="0" stop-color="#FDB624"/><stop offset="1" stop-color="#FF960F"/></linearGradient></defs><path fill="url(#gradient_2)" d="M360 295.943C372.014 292.963 385.337 296.945 397.05 300.043C393.54 300.368 386.945 298.803 386.076 298.989L386.347 300.531L385.492 300.568C379.925 298.183 373.523 297.58 367.535 297.298C365.19 297.187 361.405 297.527 359.427 296.776L360 295.943Z"/><path fill="#D76F30" d="M658.834 506.246C660.457 505.097 660.956 504.688 662.415 503.335C671.544 514.439 675.465 520.1 680.216 534.139C675.066 527.819 666.796 506.829 658.834 506.246Z"/><path fill="#FB9A21" d="M810.856 424.224C818.304 426.136 819.362 436.859 818.848 443.211C817.186 443.488 816.438 443.749 814.797 443.317C813.735 441.598 815.091 437.84 814.569 434.756C813.789 430.141 812.812 428.368 810.856 424.224Z"/><path fill="#B75426" d="M680.009 258.877C683.834 259.423 691.868 261.733 691.858 266.447C685.321 266.396 677.473 267.895 680.009 258.877Z"/><path fill="#953C1E" d="M460.126 558.222C462.539 560.209 467.192 570.106 466.85 573.17C458.37 570.525 457.486 566.402 460.126 558.222Z"/><path fill="#F75C2B" d="M677.818 284.04C683.699 284.148 689.312 285.212 694.512 288.127L694.707 288.942C690.654 289.301 682.49 290.565 679.135 287.858C677.925 286.881 677.945 285.537 677.818 284.04Z"/><path fill="#B75426" d="M664.995 535.769C666.569 536.418 668.137 537.558 669.58 538.516C670.932 541.433 671.945 545.609 672.827 548.793C671.16 547.984 669.639 546.904 668.327 545.595C665.286 542.505 665.023 539.772 664.995 535.769Z"/><path fill="#FCF9F8" fill-opacity="0.027450981" d="M575.221 450.541L574.5 449.364C579.496 448.351 601.998 459.499 606.215 463.339L606.254 463.765C604.871 463.233 600.916 461.003 599.217 460.182C592.364 456.869 582.61 452.082 575.221 450.541Z"/><path fill="#D76F30" d="M247.672 517.819C248.752 521.057 241.912 538.557 239.925 541.708C238.257 537.382 245.566 521.832 247.672 517.819Z"/><path fill="#D76F30" d="M273.364 543.474L274.407 544.988C272.299 549.707 270.44 554.534 268.839 559.449C268.137 561.648 265.836 571.204 265.354 571.977C264.439 563.96 269.97 550.687 273.364 543.474Z"/><path fill="#D76F30" d="M274.217 534.106C271.853 540.445 268.085 550.14 265.17 556.042L264.547 556.184C265.454 553.756 265.785 551.013 266.487 549.177C268.738 543.289 270.638 537.371 272.775 531.429L273.115 533.694C274.024 534.117 273.638 534.046 274.217 534.106Z"/><path fill="#FA8E2C" d="M371.785 623.517L374.954 624.703C376.012 630.971 377.092 636.787 377.445 643.147C375.299 636.63 373.584 630.134 371.785 623.517Z"/><path fill="#FCF9F8" fill-opacity="0.011764706" d="M773.479 405.598C777.423 409.631 780.995 414.012 784.151 418.687L781.917 420.432C778.839 416.141 775.894 410.332 773.479 405.598Z"/><path fill="#FB9A21" d="M652.197 721.85C653.268 725.844 647.257 733.742 644.397 736.313C643.627 732.684 649.993 724.771 652.197 721.85Z"/><path fill="#FCF9F8" fill-opacity="0.0078431377" d="M414.147 527.058C416.603 521.892 419.538 515.636 422.961 511.087C421.397 515.094 420.007 519.25 418.464 523.306L417.646 523.611C416.952 525.949 417.306 526.246 415.771 527.474L414.147 527.058Z"/><path fill="#FCF9F8" fill-opacity="0.011764706" d="M630.919 508.715C634.081 512.291 637.758 518.183 640.457 522.27L638.361 523.535C635.338 517.897 633.49 514.649 630.919 508.715Z"/><path fill="#B75426" d="M388.388 236.54C393.344 235.885 398.341 235.543 403.33 235.964L404.194 237.359L403.928 238.149C398.723 237.887 393.536 237.35 388.388 236.54Z"/><path fill="#FCF9F8" fill-opacity="0.011764706" d="M635.392 406.915C639.492 406.362 643.619 406.042 647.755 405.955C649.725 406.378 651.089 406.58 653.093 406.813L653.139 407.158C651.907 407.503 651.204 407.658 649.942 407.878C646.865 407.992 638.38 407.204 635.392 406.915Z"/><path fill="#FA8E2C" d="M252.545 495.779C250.349 499.987 247.292 505.868 246.078 510.36L244.24 509.974C246.558 503.559 247.747 500.907 252.545 495.779Z"/><defs><linearGradient id="gradient_3" gradientUnits="userSpaceOnUse" x1="412.05011" y1="254.13327" x2="413.39093" y2="259.62527"><stop offset="0" stop-color="white" stop-opacity="0"/><stop offset="1" stop-color="#FBDBDB" stop-opacity="0.019607844"/></linearGradient></defs><path fill="url(#gradient_3)" d="M407.453 256.914C407.956 255.605 407.604 256.173 408.668 255.299C410.146 255.36 411.165 255.491 412.609 255.686C416.694 257.146 418.262 257.783 422.011 260.258C417.034 258.736 412.675 257.311 407.453 256.914Z"/><path fill="#FCF9F8" fill-opacity="0.027450981" d="M328.426 473.581C332.183 470.729 335.916 467.682 340.018 465.394L340.825 464.936L328.846 475.907L328.426 473.581Z"/><path fill="#FCF9F8" fill-opacity="0.011764706" d="M336.842 394.226C341.22 393.252 346.512 392.063 350.999 391.718C345.668 393.327 341.22 394.665 336.022 396.699L336.842 394.226Z"/><path fill="#FCF9F8" fill-opacity="0.027450981" d="M272.355 525.5C274.497 522.302 277.897 516.86 280.653 514.543C278.745 517.966 276.38 521.948 274.875 525.502L272.355 525.5Z"/><path fill="#FCF9F8" fill-opacity="0.015686275" d="M385.982 542.941C385.639 547.49 384.117 551.438 383.365 555.929C382.248 554.523 382.253 554.557 381.563 552.907C383.376 549.284 384.503 546.719 385.982 542.941Z"/><path fill="#FCF9F8" fill-opacity="0.031372551" d="M317.769 504.582C320.673 501.612 323.603 498.668 326.561 495.752L320.443 505.337L317.769 504.582Z"/><path fill="#FCF9F8" fill-opacity="0.019607844" d="M280.79 394.797C284.829 392.573 287.408 391.493 291.719 389.758C288.134 392.493 285.202 394.254 281.372 396.573L280.79 394.797Z"/><path fill="#FCF9F8" fill-opacity="0.011764706" d="M389.512 394.27L401.901 393.238C399.219 394.391 394.329 395.386 391.311 396.099L389.512 394.27Z"/><path fill="#FCF9F8" fill-opacity="0.011764706" d="M458.356 534.519C458.757 531.92 459.545 525.919 460.245 523.691L460.5 534.468L459.836 535.295L458.356 534.519Z"/><path fill="#FCF9F8" fill-opacity="0.0078431377" d="M527.327 754.391L535.058 754.204C535.853 754.621 536.642 755.049 537.425 755.488C536.936 756.172 537.03 756.179 536.388 756.677L527.327 754.391Z"/><path fill="#FCF9F8" fill-opacity="0.015686275" d="M521.325 728.77C523.82 728.454 526.719 728.248 529.254 728.012L531.135 728.688L530.941 729.332L529.605 729.939C526.842 729.568 524.082 729.179 521.325 728.77Z"/><path fill="#FCF9F8" fill-opacity="0.019607844" d="M336.036 477.111C333.752 479.23 330.855 481.485 328.822 483.429L327.92 481.523C330.638 480.075 333.343 478.604 336.036 477.111Z"/><path fill="#FCF9F8" fill-opacity="0.023529412" d="M281.744 361.432C284.285 360.167 286.818 358.841 289.444 357.775C287.766 359.108 283.659 361.94 283.145 363.773L282.578 363.735C282.452 362.461 282.42 362.54 281.744 361.432Z"/><path fill="#FA8E2C" fill-opacity="0.95686275" d="M562.176 486.24L565.698 494.22C563.299 491.5 562.811 490.773 561.025 487.641L562.176 486.24Z"/></svg>