<svg id="visual" viewBox="0 0 900 600" width="900" height="600" xmlns="http://www.w3.org/2000/svg" xmlns:xlink="http://www.w3.org/1999/xlink" version="1.1"><rect x="0" y="0" width="900" height="600" fill="#FFFFFF"></rect><path d="M0 87L7.5 85.2C15 83.3 30 79.7 45 79.3C60 79 75 82 90 82.2C105 82.3 120 79.7 135 81C150 82.3 165 87.7 180 79.8C195 72 210 51 225 41.5C240 32 255 34 270 37.3C285 40.7 300 45.3 315 44.2C330 43 345 36 360 39.8C375 43.7 390 58.3 405 70.2C420 82 435 91 450 89.2C465 87.3 480 74.7 495 72C510 69.3 525 76.7 540 70.7C555 64.7 570 45.3 585 46.5C600 47.7 615 69.3 630 75.2C645 81 660 71 675 70.2C690 69.3 705 77.7 720 73.5C735 69.3 750 52.7 765 47C780 41.3 795 46.7 810 47.7C825 48.7 840 45.3 855 48.3C870 51.3 885 60.7 892.5 65.3L900 70L900 0L892.5 0C885 0 870 0 855 0C840 0 825 0 810 0C795 0 780 0 765 0C750 0 735 0 720 0C705 0 690 0 675 0C660 0 645 0 630 0C615 0 600 0 585 0C570 0 555 0 540 0C525 0 510 0 495 0C480 0 465 0 450 0C435 0 420 0 405 0C390 0 375 0 360 0C345 0 330 0 315 0C300 0 285 0 270 0C255 0 240 0 225 0C210 0 195 0 180 0C165 0 150 0 135 0C120 0 105 0 90 0C75 0 60 0 45 0C30 0 15 0 7.5 0L0 0Z" fill="#001122" stroke-linecap="round" stroke-linejoin="miter"></path></svg>